<svg version="1.1" id="Layer_1" xmlns="http://www.w3.org/2000/svg" xmlns:xlink="http://www.w3.org/1999/xlink" x="0px" y="0px"
	 width="100%" viewBox="0 0 1524 840" enable-background="new 0 0 1524 840" xml:space="preserve">
<path fill="#4DA0EC" opacity="1.000000" stroke="none" 
	d="
M433.000000,841.000000 
	C289.119202,841.000000 145.238388,841.000000 1.000000,841.000000 
	C1.000000,811.977661 1.000000,782.953857 1.461426,753.373169 
	C23.200445,752.779358 44.478138,752.764404 65.755463,752.667114 
	C67.617622,752.658569 69.477325,752.110107 71.338173,751.812439 
	C71.269157,750.952576 71.200142,750.092651 71.131119,749.232727 
	C47.754078,749.155151 24.377039,749.077576 1.000000,749.000000 
	C1.000000,635.309998 1.000000,521.619995 1.465958,407.431885 
	C6.902542,406.141632 12.359303,408.487427 16.988630,405.492340 
	C16.965816,404.898712 16.943003,404.305115 16.920189,403.711517 
	C11.613459,403.474365 6.306729,403.237183 1.000000,403.000000 
	C1.000000,394.643341 1.000000,386.286682 1.466966,377.463745 
	C6.904295,376.750366 11.994844,377.520996 16.873711,376.499115 
	C16.851904,375.666077 16.830095,374.833038 16.808289,374.000000 
	C11.538859,374.000000 6.269430,374.000000 1.000000,374.000000 
	C1.000000,249.689407 1.000000,125.378822 1.000000,1.034116 
	C508.884308,1.034116 1016.768616,1.034116 1525.000000,1.034116 
	C1525.000000,153.356476 1525.000000,305.713226 1524.531860,458.510803 
	C1517.071289,458.945770 1510.076904,458.830048 1503.087158,458.965607 
	C1496.416138,459.095001 1489.652222,458.339355 1483.056519,459.465393 
	C1483.078003,460.310242 1483.099609,461.155121 1483.121216,462.000000 
	C1497.080811,462.000000 1511.040405,462.000000 1525.000000,462.000000 
	C1525.000000,466.358154 1525.000000,470.716309 1524.532471,475.572571 
	C1493.471436,476.082733 1462.877930,476.080994 1432.284546,476.141022 
	C1430.423828,476.144684 1428.564331,476.638641 1426.704224,476.904510 
	C1426.751831,477.533844 1426.799316,478.163208 1426.846924,478.792542 
	C1428.840210,478.985443 1430.833374,479.343811 1432.826904,479.346405 
	C1461.425293,479.383636 1490.023560,479.359589 1518.621948,479.400665 
	C1520.748169,479.403717 1522.874023,479.791199 1525.000000,480.000000 
	C1525.000000,600.269958 1525.000000,720.539978 1525.000000,841.000000 
	C1373.310059,841.000000 1221.619995,841.000000 1069.325806,840.548462 
	C1069.285156,823.182251 1069.794800,806.265503 1070.434937,789.353699 
	C1070.754272,780.913208 1071.312378,772.481750 1072.112793,764.019104 
	C1090.756958,758.085815 1109.093384,752.306091 1127.305908,746.159607 
	C1130.675781,745.022461 1133.545898,742.404541 1136.646729,740.470093 
	C1136.469360,739.814514 1136.292114,739.158936 1136.114868,738.503357 
	C1115.121948,736.138062 1094.004639,735.932068 1072.787354,735.491943 
	C1071.648926,726.631470 1074.189575,719.597717 1080.529053,713.878967 
	C1081.961304,712.586853 1082.920532,710.770386 1084.387939,709.020386 
	C1089.780762,701.213684 1094.883301,693.581787 1100.232666,686.186035 
	C1104.749756,693.153687 1108.706055,700.111572 1113.360474,706.566040 
	C1121.256714,717.515869 1131.007324,726.583069 1143.701416,731.674500 
	C1157.031738,737.021057 1170.309326,737.143066 1182.815552,728.985352 
	C1187.927612,725.650818 1190.189087,720.911987 1188.539795,714.834229 
	C1187.546265,711.172363 1186.175415,707.612915 1184.958984,703.641724 
	C1170.974976,672.642578 1150.613159,646.324036 1129.205811,620.368347 
	C1128.749634,618.079712 1128.920410,615.558411 1127.742310,614.279846 
	C1123.727661,609.922852 1119.237793,606.003723 1114.783325,601.566895 
	C1114.035767,597.633972 1113.653931,593.978516 1108.300659,595.059509 
	C1107.394165,595.242432 1106.153564,593.771118 1105.037476,592.605713 
	C1104.940674,589.108948 1104.873779,586.070557 1104.857666,582.634521 
	C1104.229248,575.191772 1101.865845,573.065369 1094.768921,572.934021 
	C1084.841431,572.750366 1074.914917,572.501404 1064.578003,572.198547 
	C1055.926636,570.965332 1047.685303,569.814026 1039.623291,568.355103 
	C1046.504028,555.554565 1049.283813,542.172424 1048.969604,527.759094 
	C1049.121826,527.243164 1049.172119,527.033691 1049.490479,526.660522 
	C1066.726074,510.550140 1081.531128,492.807465 1093.579224,472.870483 
	C1119.770996,429.528900 1130.490479,382.947632 1122.156250,332.580139 
	C1114.649292,287.212097 1093.098633,248.920898 1062.024292,215.721924 
	C1024.497314,175.629272 978.726624,148.023529 927.591125,129.045090 
	C858.462158,103.388573 787.059265,95.491196 713.829041,102.745239 
	C663.868225,107.694267 615.850159,119.981995 570.286499,141.197769 
	C521.222656,164.043274 478.343567,194.976837 445.712006,238.795731 
	C419.164246,274.445007 403.483032,314.246155 402.200836,358.988647 
	C400.758392,409.325836 417.470734,453.755890 447.626648,493.521301 
	C448.457855,494.617340 449.971313,495.195953 451.126801,496.020996 
	C451.086975,496.026184 451.070679,495.946960 450.801758,496.238281 
	C451.047455,497.026337 451.562073,497.523102 452.036987,498.010651 
	C451.997284,498.001434 452.015533,497.922028 451.928894,498.248932 
	C452.229431,499.115570 452.616577,499.655273 453.209625,500.452545 
	C457.870422,506.686005 462.245850,512.724304 466.846375,518.585876 
	C467.781464,519.777344 469.564484,520.303162 470.973877,521.080444 
	C470.991150,521.025085 470.878967,520.995544 470.658386,521.343872 
	C470.993958,522.286865 471.550140,522.881531 472.244965,523.616699 
	C472.589447,523.931580 472.824677,524.044861 473.216248,524.400757 
	C475.129547,527.290955 476.817230,529.952637 478.720764,532.449829 
	C484.332520,539.811768 484.397003,544.968201 478.408752,552.840942 
	C472.188202,554.277405 466.256866,555.300415 460.599274,557.157471 
	C434.943207,565.579041 417.830017,582.195984 411.949402,609.143372 
	C409.858276,618.725891 407.980042,628.362549 406.308838,638.027100 
	C403.897430,651.972290 404.705322,665.848938 407.880676,679.983643 
	C408.266205,683.125305 408.413177,685.964294 409.153778,688.638794 
	C412.228699,699.742859 415.967896,710.481506 427.136169,716.812012 
	C427.729248,724.159485 428.326660,731.051758 428.461914,737.953735 
	C406.857635,737.956482 385.756409,738.582886 363.642975,741.306824 
	C367.752747,747.177979 373.069092,749.056091 378.045532,750.618530 
	C395.291534,756.033142 412.710052,760.898376 430.103577,766.433350 
	C430.396179,771.182739 430.731934,775.468445 430.885834,779.760620 
	C431.617645,800.172791 432.300018,820.586731 433.000000,841.000000 
M1370.994873,373.383118 
	C1372.030273,403.950470 1391.209229,423.065460 1430.163574,431.728973 
	C1430.163574,441.281525 1430.163574,451.040283 1430.163574,460.799042 
	C1438.791138,450.408020 1446.279053,439.813904 1454.058228,429.438293 
	C1455.978516,426.877014 1458.565918,424.550629 1461.323120,422.924042 
	C1484.406616,409.306488 1495.920532,382.289581 1489.454102,356.404236 
	C1482.126709,327.071411 1453.807373,307.507538 1423.983887,311.174988 
	C1393.008423,314.984039 1370.973389,340.448364 1370.994873,373.383118 
M144.294754,641.879272 
	C143.443802,644.047485 142.517944,646.189697 141.753067,648.387878 
	C129.553070,683.449829 153.630875,722.347656 190.362381,726.942749 
	C197.880951,727.883301 197.881699,727.883301 197.882751,735.412292 
	C197.883743,742.606873 197.882965,749.801453 197.882965,756.996033 
	C206.781403,746.595093 214.371902,735.898621 222.189133,725.370544 
	C223.806824,723.191895 226.022369,721.210815 228.377228,719.864075 
	C251.489807,706.645325 263.450012,679.818970 257.474365,654.205688 
	C251.797562,629.873230 231.499847,610.977417 207.903381,608.058289 
	C180.561584,604.675903 157.465042,616.778442 144.294754,641.879272 
M22.181482,351.260254 
	C24.243114,353.650909 26.000875,356.417755 28.417078,358.369446 
	C41.347008,368.813934 54.439671,379.057007 67.495514,389.345032 
	C67.669884,389.482483 68.097633,389.298370 69.122406,389.185730 
	C69.122406,384.424713 69.122406,379.566498 69.122406,374.054413 
	C73.124924,374.054413 76.440277,374.244232 79.727570,374.020935 
	C92.650658,373.143066 104.531853,369.170898 114.868225,361.255615 
	C135.537689,345.427521 135.525864,319.993256 114.954086,304.032990 
	C92.323990,286.475830 54.357227,286.443176 31.725227,303.961426 
	C15.601944,316.441620 11.891005,333.895020 22.181482,351.260254 
M277.101776,165.310806 
	C277.113464,155.848709 276.628418,157.580704 285.155060,157.188171 
	C297.819794,156.605133 309.283295,152.759232 319.207153,144.711426 
	C335.495941,131.501923 335.560974,109.846924 319.357330,96.477180 
	C299.897003,80.420303 267.546112,79.199448 246.432388,93.725136 
	C225.810989,107.912155 225.334503,131.498642 245.260010,146.567902 
	C253.476990,152.782196 261.484283,159.273849 269.582794,165.644653 
	C271.747681,167.347687 273.897125,169.070297 276.678589,171.280502 
	C276.865417,169.019241 276.982635,167.600540 277.101776,165.310806 
M1292.958618,617.800659 
	C1294.572388,617.047424 1296.150635,615.737000 1297.805664,615.631653 
	C1308.288696,614.964111 1318.229004,612.652832 1327.092529,606.764221 
	C1344.745483,595.036438 1346.687866,574.579529 1331.456909,561.149963 
	C1312.781128,544.682922 1278.885986,544.942505 1260.452148,561.693665 
	C1247.959595,573.045898 1247.149292,590.469604 1259.594849,601.766846 
	C1269.661377,610.904541 1280.828247,618.830261 1291.528687,627.266235 
	C1291.690308,627.393738 1292.129883,627.168884 1292.889282,627.020691 
	C1292.889282,624.299316 1292.889282,621.500122 1292.958618,617.800659 
M284.115814,489.568939 
	C284.115814,492.388489 284.115814,495.208008 284.115814,498.027557 
	C286.132782,497.131439 286.967407,496.126373 287.729584,495.069031 
	C292.655823,488.234406 297.656525,481.751068 304.496857,476.328003 
	C317.729004,465.837524 318.259460,446.188446 306.794800,433.628174 
	C295.529022,421.285858 275.943787,420.770569 263.835693,432.497894 
	C251.655502,444.295044 251.612701,463.391876 263.657288,475.430969 
	C269.194031,480.965271 276.157806,483.301849 283.773804,484.470886 
	C283.900848,486.057800 284.004883,487.357727 284.115814,489.568939 
M1377.929932,772.363403 
	C1382.671509,766.221375 1386.741699,759.753113 1393.339600,754.944092 
	C1405.047729,746.410217 1407.998047,730.912415 1401.541748,718.157715 
	C1395.313110,705.852539 1381.175659,699.231445 1367.913696,702.408691 
	C1353.567993,705.845581 1344.331909,718.204956 1344.807617,733.328125 
	C1345.236328,746.957947 1355.286743,758.406616 1369.172607,761.125977 
	C1370.745483,761.434143 1372.283813,761.919067 1374.304932,762.442993 
	C1374.304932,767.083496 1374.304932,771.446167 1374.304932,776.912415 
	C1375.910400,774.934631 1376.724609,773.931763 1377.929932,772.363403 
M1314.678711,178.226105 
	C1312.752563,195.460526 1321.847534,206.343140 1344.095703,212.731384 
	C1344.095703,216.961884 1344.095703,221.431793 1344.095703,225.901703 
	C1348.432129,221.475998 1351.646973,216.835037 1355.088989,212.369171 
	C1356.473267,210.573105 1358.161133,208.866013 1360.043701,207.622360 
	C1372.317261,199.513809 1377.432007,185.806000 1372.983643,172.490875 
	C1368.503296,159.079849 1356.252075,151.058929 1341.683716,151.998749 
	C1328.318481,152.860947 1317.535645,163.048431 1314.678711,178.226105 
M137.500000,781.063782 
	C161.243210,781.063782 184.986420,781.063782 208.729630,781.063782 
	C205.091476,777.171448 33.160728,777.308228 30.223118,781.063782 
	C65.648743,781.063782 101.074371,781.063782 137.500000,781.063782 
M1473.500000,762.106628 
	C1455.176392,762.107605 1436.852661,762.082336 1418.529297,762.151062 
	C1416.736572,762.157776 1414.945923,762.742615 1413.154175,763.059143 
	C1418.789551,766.562866 1519.396362,765.872375 1521.932373,762.106689 
	C1506.121582,762.106689 1490.310791,762.106689 1473.500000,762.106628 
M1457.500000,179.203003 
	C1450.349365,179.202881 1443.196045,179.084381 1436.048706,179.236328 
	C1429.044800,179.385208 1421.927124,178.537338 1414.993896,180.873657 
	C1416.426758,182.243332 1417.883789,182.842194 1419.342041,182.845001 
	C1447.778320,182.899612 1476.214600,182.904739 1504.650879,182.827789 
	C1506.144653,182.823746 1507.636353,182.002502 1509.129150,181.561707 
	C1509.048340,180.775620 1508.967529,179.989532 1508.886719,179.203445 
	C1492.091187,179.203445 1475.295532,179.203445 1457.500000,179.203003 
M1312.501953,652.937073 
	C1341.105347,652.937195 1369.708618,652.952698 1398.311890,652.901733 
	C1400.144775,652.898438 1401.976807,652.380981 1403.809204,652.102722 
	C1398.599243,648.861755 1297.964600,649.339783 1295.109497,652.937012 
	C1300.574097,652.937012 1306.038574,652.937012 1312.501953,652.937073 
M39.406578,406.858887 
	C61.210152,406.873688 83.013786,406.911987 104.817184,406.857391 
	C106.512741,406.853149 108.206665,406.197723 109.901352,405.844940 
	C109.862244,405.248169 109.823135,404.651428 109.784027,404.054657 
	C107.800461,403.797943 105.817474,403.323395 103.833237,403.318115 
	C83.527504,403.264313 63.221573,403.282288 42.915710,403.296875 
	C41.422478,403.297974 39.793221,403.070282 38.465248,403.575134 
	C35.910057,404.546509 36.464550,405.799408 39.406578,406.858887 
M244.500000,407.117737 
	C251.327499,407.117706 258.154999,407.117676 264.982513,407.117676 
	C271.810028,407.117645 278.637970,407.165314 285.464935,407.103973 
	C291.988373,407.045349 298.555420,407.381805 305.039856,405.757233 
	C303.552399,404.424591 302.070557,404.053802 300.588165,404.051666 
	C273.611206,404.012756 246.634186,404.000824 219.657318,404.058533 
	C218.088379,404.061890 216.520813,404.706207 214.952606,405.052216 
	C215.062622,405.740753 215.172653,406.429291 215.282669,407.117828 
	C224.688446,407.117828 234.094223,407.117828 244.500000,407.117737 
M270.500214,60.005043 
	C263.702820,60.005043 256.905426,60.005043 250.108032,60.005043 
	C253.323151,63.780014 331.458466,63.795696 334.760498,60.005043 
	C313.673737,60.005043 292.586945,60.005043 270.500214,60.005043 
M317.385803,508.994659 
	C320.385193,508.809296 323.384552,508.623901 326.383942,508.438538 
	C326.337067,507.821503 326.290222,507.204468 326.243347,506.587433 
	C300.210083,506.587433 274.176819,506.587433 248.143570,506.587433 
	C248.128922,507.388885 248.114258,508.190308 248.099609,508.991760 
	C270.871552,508.997345 293.643738,508.993317 317.385803,508.994659 
M1278.230225,226.196426 
	C1277.575562,226.807327 1276.920898,227.418213 1276.266357,228.029144 
	C1277.666138,228.591278 1279.062622,229.632736 1280.466187,229.642349 
	C1296.928711,229.755051 1313.392456,229.743225 1329.855347,229.661728 
	C1331.396973,229.654099 1332.935059,228.948517 1335.392456,228.339645 
	C1333.905029,227.144089 1333.425659,226.421539 1332.940796,226.417816 
	C1314.990356,226.279709 1297.039307,226.208130 1278.230225,226.196426 
M248.389481,423.380920 
	C249.023865,422.782349 249.658249,422.183746 250.292648,421.585114 
	C249.174942,421.093994 248.060608,420.184784 246.939011,420.175781 
	C234.496826,420.075623 222.053314,420.082855 209.610870,420.168121 
	C208.417191,420.176331 207.228439,420.904907 206.037399,421.299042 
	C206.117554,422.010590 206.197693,422.722137 206.277847,423.433685 
	C220.045319,423.433685 233.812790,423.433685 248.389481,423.380920 
M1353.503174,628.096680 
	C1347.869751,628.634705 1341.973389,626.884094 1335.957642,629.520386 
	C1340.483032,632.925415 1375.167969,632.559570 1378.904297,628.322571 
	C1370.078003,628.240967 1362.290039,628.168884 1353.503174,628.096680 
M236.324387,192.870361 
	C242.490280,192.880096 248.668030,193.132050 254.818665,192.830444 
	C260.793732,192.537476 267.020508,194.205734 272.749420,190.594727 
	C269.730347,189.529129 266.735321,189.527267 263.740295,189.529465 
	C254.907990,189.535950 246.075073,189.496292 237.244110,189.609085 
	C236.078720,189.623962 234.923294,190.420013 233.763245,190.854279 
	C234.346939,191.511063 234.930634,192.167847 236.324387,192.870361 
M1428.466431,157.005508 
	C1418.017578,157.142258 1407.568726,157.270111 1397.120850,157.463547 
	C1396.840210,157.468750 1396.572510,158.183578 1396.293823,158.574371 
	C1400.052124,160.819122 1436.567993,160.691208 1439.826294,157.005524 
	C1436.367920,157.005524 1432.909424,157.005524 1428.466431,157.005508 
M139.339203,752.038757 
	C140.655334,748.944763 138.183594,749.184387 136.574158,749.167603 
	C127.776833,749.075439 118.977333,749.069397 110.180641,749.187561 
	C109.054268,749.202759 107.939919,750.113525 106.820007,750.609436 
	C106.933365,751.210327 107.046722,751.811218 107.160088,752.412109 
	C117.637878,752.412109 128.115662,752.412109 139.339203,752.038757 
M1405.500732,783.995850 
	C1412.929199,783.978027 1420.357666,783.960205 1427.786133,783.942383 
	C1427.759033,783.450317 1427.731934,782.958191 1427.704834,782.466064 
	C1423.932739,780.104004 1389.816040,780.337585 1387.043457,783.995850 
	C1392.862915,783.995850 1398.682251,783.995850 1405.500732,783.995850 
M226.839310,60.004940 
	C225.838654,60.486183 224.837997,60.967426 223.837341,61.448666 
	C223.990112,61.741909 224.142868,62.035149 224.295624,62.328388 
	C228.792908,62.328388 233.290207,62.328388 237.787491,62.328388 
	C237.820053,61.694515 237.852631,61.060642 237.885193,60.426769 
	C234.508530,60.283360 231.131851,60.139954 226.839310,60.004940 
z"/>
<path fill="#EDC856" opacity="1.000000" stroke="none" 
	d="
M1071.762451,764.046204 
	C1071.312378,772.481750 1070.754272,780.913208 1070.434937,789.353699 
	C1069.794800,806.265503 1069.285156,823.182251 1068.860840,840.548462 
	C1053.979126,841.000000 1038.958130,841.000000 1023.263550,840.726074 
	C1018.722595,838.267029 1014.855408,836.082031 1011.340698,833.699341 
	C1014.984497,833.544312 1018.278381,833.521362 1021.566589,833.645569 
	C1025.842041,833.807007 1030.254639,835.078003 1035.648926,831.550171 
	C1030.820312,830.249023 1027.326294,829.514404 1023.972351,828.368896 
	C1006.033997,822.242126 987.944153,816.492615 970.287659,809.632202 
	C960.307739,805.754517 950.691528,800.581482 941.598389,794.893799 
	C934.238831,790.290405 934.756042,787.346863 941.997070,782.576172 
	C943.199280,781.784119 944.698547,781.430725 946.077881,780.921570 
	C953.713989,778.103271 961.527771,775.686035 968.945374,772.379272 
	C976.033264,769.219604 976.730652,763.896118 971.077820,758.710205 
	C968.291565,756.154053 964.991943,754.089417 961.723511,752.139648 
	C952.030884,746.357605 941.873352,741.281006 932.555603,734.958618 
	C907.980774,718.283875 887.423889,697.356995 869.686646,673.593018 
	C866.951355,669.928345 863.858643,666.530334 860.699829,662.762695 
	C858.317261,659.007324 856.166016,655.498413 853.926453,651.642822 
	C849.712524,645.685486 850.250732,639.556458 851.810547,633.299255 
	C852.813354,629.276611 853.761780,625.240295 854.917908,620.878479 
	C864.733521,594.372925 883.434631,578.308350 910.457458,572.528992 
	C922.420837,569.970276 934.805542,569.381775 946.786011,568.158936 
	C944.542786,570.619263 942.658447,572.981079 940.445618,574.979004 
	C937.681702,577.474487 937.768555,579.599426 940.454041,582.029541 
	C947.603088,588.498413 954.203186,595.689758 961.900330,601.411743 
	C975.751404,611.708557 989.937500,621.632690 1004.565735,630.781921 
	C1016.404907,638.186646 1018.112732,638.582092 1024.425293,625.061401 
	C1030.360352,612.349365 1034.142578,598.588867 1038.326172,585.120117 
	C1040.552246,577.953247 1039.612305,576.944092 1033.032593,573.496460 
	C1035.328735,571.735229 1037.386353,570.198914 1039.443970,568.662598 
	C1047.685303,569.814026 1055.926636,570.965332 1064.248779,572.356018 
	C1056.918213,573.936768 1055.181885,575.721619 1055.021851,582.426636 
	C1054.914185,583.169983 1054.859009,583.595642 1054.719238,584.125488 
	C1054.526489,584.498657 1054.555176,584.751282 1054.726074,585.446655 
	C1054.690430,589.268555 1054.649292,592.631409 1054.533691,596.110901 
	C1054.376953,596.513062 1054.432495,596.769043 1054.665039,597.386536 
	C1054.659424,598.821533 1054.614746,599.865356 1054.228271,600.879456 
	C1050.687500,599.595154 1047.570679,597.971802 1044.256836,597.234375 
	C1042.473511,596.837585 1040.352173,597.959839 1038.383423,598.396667 
	C1039.237793,600.349976 1039.569214,602.963562 1041.044922,604.132324 
	C1045.412598,607.591553 1050.232178,610.480469 1054.795654,613.929688 
	C1054.662842,614.491638 1054.609375,614.716370 1054.411377,615.233948 
	C1053.262451,616.768616 1052.083374,617.910583 1051.301147,619.279297 
	C1050.457520,620.755310 1049.394043,622.467407 1049.457275,624.035034 
	C1049.688110,629.765320 1050.398193,635.474854 1050.795654,641.201355 
	C1050.858643,642.109375 1050.242065,643.064575 1049.582642,643.918823 
	C1047.521118,643.186707 1045.841431,642.089539 1044.105713,641.992126 
	C1041.903809,641.868530 1039.656250,642.556763 1037.428467,642.894897 
	C1038.485840,645.056641 1039.026367,647.833435 1040.710815,649.248962 
	C1043.984863,652.000427 1047.921509,653.956116 1051.544434,656.302307 
	C1054.268677,658.066528 1055.435547,660.898071 1052.330933,662.540283 
	C1048.484009,664.575012 1049.042603,667.383728 1049.163818,670.510498 
	C1049.367554,675.764038 1049.792236,681.031860 1049.584961,686.272278 
	C1049.365234,691.829651 1053.448486,698.350525 1058.798706,699.875244 
	C1065.014526,701.646606 1071.307739,703.176392 1077.439697,705.198242 
	C1079.837646,705.988770 1081.888550,707.831665 1084.097534,709.195312 
	C1082.920532,710.770386 1081.961304,712.586853 1080.529053,713.878967 
	C1074.189575,719.597717 1071.648926,726.631470 1072.633545,735.876465 
	C1072.298950,745.824524 1072.030762,754.935364 1071.762451,764.046204 
z"/>
<path fill="#2DC690" opacity="1.000000" stroke="none" 
	d="
M428.924072,737.944031 
	C428.326660,731.051758 427.729248,724.159485 427.517334,716.914307 
	C456.842407,723.365051 485.759674,730.265564 514.729919,736.935852 
	C531.830200,740.873108 549.462219,742.254517 565.686462,750.128235 
	C582.623047,758.347656 587.981567,756.135010 597.461365,739.816101 
	C597.542786,739.676086 597.686096,739.572021 597.840454,739.951782 
	C597.292236,757.638550 596.704102,774.824646 596.059753,792.459595 
	C595.335693,808.938904 594.667847,824.969482 594.000000,841.000000 
	C540.645752,841.000000 487.291534,841.000000 433.468658,841.000000 
	C432.300018,820.586731 431.617645,800.172791 430.885834,779.760620 
	C430.731934,775.468445 430.396179,771.182739 430.129120,765.967896 
	C429.717377,756.009216 429.320740,746.976624 428.924072,737.944031 
z"/>
<path fill="#4DA0EC" opacity="1.000000" stroke="none" 
	d="
M594.468628,841.000000 
	C594.667847,824.969482 595.335693,808.938904 596.502563,792.456787 
	C607.937256,792.708130 618.868958,793.480957 629.809387,794.099792 
	C653.515991,795.440674 677.214172,797.385254 700.939392,797.834656 
	C735.396606,798.487488 769.874756,798.038147 804.201294,798.378174 
	C793.039062,812.798340 782.019531,826.899170 771.000000,841.000000 
	C712.312439,841.000000 653.624878,841.000000 594.468628,841.000000 
z"/>
<path fill="#E2B98F" opacity="1.000000" stroke="none" 
	d="
M771.468628,841.000000 
	C782.019531,826.899170 793.039062,812.798340 804.456787,798.190430 
	C813.135010,786.864929 821.423889,776.053284 829.681396,765.217712 
	C830.479309,764.170654 831.471069,763.052795 831.714355,761.836182 
	C833.568054,752.568359 835.257935,743.267700 837.179565,733.634827 
	C840.240295,718.990479 843.085144,704.681458 846.010620,690.388916 
	C848.632568,677.579651 851.343262,664.788574 854.014771,651.989441 
	C856.166016,655.498413 858.317261,659.007324 860.788330,663.108398 
	C869.429810,678.342163 877.841431,692.933960 886.005676,707.662842 
	C887.892578,711.066956 888.933472,714.940002 890.335693,718.978027 
	C889.252747,724.216736 888.197998,729.074768 886.960266,734.267334 
	C879.584106,754.722717 872.390869,774.843567 864.943726,795.194458 
	C860.726501,799.904236 856.930420,804.546509 852.766968,808.831970 
	C842.266235,819.640320 831.599976,830.287964 821.000000,841.000000 
	C804.645752,841.000000 788.291565,841.000000 771.468628,841.000000 
z"/>
<path fill="#E0BE53" opacity="1.000000" stroke="none" 
	d="
M890.363770,718.597290 
	C888.933472,714.940002 887.892578,711.066956 886.005676,707.662842 
	C877.841431,692.933960 869.429810,678.342163 861.019775,663.354736 
	C863.858643,666.530334 866.951355,669.928345 869.686646,673.593018 
	C887.423889,697.356995 907.980774,718.283875 932.555603,734.958618 
	C941.873352,741.281006 952.030884,746.357605 961.723511,752.139648 
	C964.991943,754.089417 968.291565,756.154053 971.077820,758.710205 
	C976.730652,763.896118 976.033264,769.219604 968.945374,772.379272 
	C961.527771,775.686035 953.713989,778.103271 946.077881,780.921570 
	C944.698547,781.430725 943.199280,781.784119 941.997070,782.576172 
	C934.756042,787.346863 934.238831,790.290405 941.598389,794.893799 
	C950.691528,800.581482 960.307739,805.754517 970.287659,809.632202 
	C987.944153,816.492615 1006.033997,822.242126 1023.972351,828.368896 
	C1027.326294,829.514404 1030.820312,830.249023 1035.648926,831.550171 
	C1030.254639,835.078003 1025.842041,833.807007 1021.566589,833.645569 
	C1018.278381,833.521362 1014.984497,833.544312 1010.985718,833.628784 
	C1008.345032,833.411316 1006.380798,832.650940 1004.483826,832.792419 
	C994.865540,833.509521 985.200745,834.032654 975.676697,835.456421 
	C967.034729,836.748291 958.552612,839.109985 950.000000,841.000000 
	C939.312439,841.000000 928.624878,841.000000 917.482605,840.573669 
	C914.312805,823.772827 911.597656,807.398376 908.912109,790.611206 
	C908.295166,786.772339 907.782166,783.314514 906.979248,779.925354 
	C903.346802,764.592712 899.632263,749.279602 895.954468,733.570862 
	C894.095581,728.320618 892.229675,723.458984 890.363770,718.597290 
z"/>
<path fill="#4EA0EC" opacity="1.000000" stroke="none" 
	d="
M908.882568,791.023865 
	C911.597656,807.398376 914.312805,823.772827 917.013916,840.573669 
	C885.312439,841.000000 853.624878,841.000000 821.468628,841.000000 
	C831.599976,830.287964 842.266235,819.640320 852.766968,808.831970 
	C856.930420,804.546509 860.726501,799.904236 865.336426,795.110596 
	C880.282837,793.539124 894.582703,792.281494 908.882568,791.023865 
z"/>
<path fill="#4EA0EC" opacity="1.000000" stroke="none" 
	d="
M950.468628,841.000000 
	C958.552612,839.109985 967.034729,836.748291 975.676697,835.456421 
	C985.200745,834.032654 994.865540,833.509521 1004.483826,832.792419 
	C1006.380798,832.650940 1008.345032,833.411316 1010.633179,833.826416 
	C1014.855408,836.082031 1018.722595,838.267029 1022.794922,840.726074 
	C998.979126,841.000000 974.958191,841.000000 950.468628,841.000000 
z"/>
<path fill="#E3ECF1" opacity="1.000000" stroke="none" 
	d="
M1525.000000,479.599976 
	C1522.874023,479.791199 1520.748169,479.403717 1518.621948,479.400665 
	C1490.023560,479.359589 1461.425293,479.383636 1432.826904,479.346405 
	C1430.833374,479.343811 1428.840210,478.985443 1426.846924,478.792542 
	C1426.799316,478.163208 1426.751831,477.533844 1426.704224,476.904510 
	C1428.564331,476.638641 1430.423828,476.144684 1432.284546,476.141022 
	C1462.877930,476.080994 1493.471436,476.082733 1524.532471,476.035339 
	C1525.000000,477.066681 1525.000000,478.133331 1525.000000,479.599976 
z"/>
<path fill="#CBDFF1" opacity="1.000000" stroke="none" 
	d="
M1.000000,749.400024 
	C24.377039,749.077576 47.754078,749.155151 71.131119,749.232727 
	C71.200142,750.092651 71.269157,750.952576 71.338173,751.812439 
	C69.477325,752.110107 67.617622,752.658569 65.755463,752.667114 
	C44.478138,752.764404 23.200445,752.779358 1.461426,752.908142 
	C1.000000,751.933289 1.000000,750.866638 1.000000,749.400024 
z"/>
<path fill="#F2F2F2" opacity="1.000000" stroke="none" 
	d="
M1525.000000,461.625000 
	C1511.040405,462.000000 1497.080811,462.000000 1483.121216,462.000000 
	C1483.099609,461.155121 1483.078003,460.310242 1483.056519,459.465393 
	C1489.652222,458.339355 1496.416138,459.095001 1503.087158,458.965607 
	C1510.076904,458.830048 1517.071289,458.945770 1524.531860,458.975830 
	C1525.000000,459.750000 1525.000000,460.500000 1525.000000,461.625000 
z"/>
<path fill="#CBDFF1" opacity="1.000000" stroke="none" 
	d="
M1.000000,403.399994 
	C6.306729,403.237183 11.613459,403.474365 16.920189,403.711517 
	C16.943003,404.305115 16.965816,404.898712 16.988630,405.492340 
	C12.359303,408.487427 6.902542,406.141632 1.465958,406.966858 
	C1.000000,405.933319 1.000000,404.866669 1.000000,403.399994 
z"/>
<path fill="#F2F2F2" opacity="1.000000" stroke="none" 
	d="
M1.000000,374.375000 
	C6.269430,374.000000 11.538859,374.000000 16.808289,374.000000 
	C16.830095,374.833038 16.851904,375.666077 16.873711,376.499115 
	C11.994844,377.520996 6.904295,376.750366 1.466966,376.998718 
	C1.000000,376.250000 1.000000,375.500000 1.000000,374.375000 
z"/>
<path fill="#F2F2F2" opacity="1.000000" stroke="none" 
	d="
M946.999023,567.898987 
	C934.805542,569.381775 922.420837,569.970276 910.457458,572.528992 
	C883.434631,578.308350 864.733521,594.372925 854.541565,620.929199 
	C814.942139,628.591919 775.559265,631.064941 735.271606,628.827698 
	C735.271606,654.264648 735.271606,678.798828 735.271606,704.544006 
	C692.559021,675.638855 650.845947,647.410095 609.052673,618.737183 
	C608.689636,615.810852 608.341248,613.333984 608.134277,610.845459 
	C606.663940,593.166138 598.001648,580.127625 582.518738,571.707275 
	C576.835388,568.616394 570.807068,566.159790 565.072998,563.023193 
	C567.671082,548.055237 570.746277,533.549377 572.451599,518.884155 
	C575.111023,496.014893 575.752808,473.085632 570.067261,450.433594 
	C563.267578,423.342834 545.138062,406.477997 517.725769,402.466888 
	C505.672607,400.703186 494.208984,402.894165 483.540039,409.953247 
	C472.060547,409.546448 463.835297,414.556274 458.033569,423.575348 
	C450.580353,435.161713 447.104645,448.086731 446.002533,461.735321 
	C445.046265,473.577881 447.924225,484.818573 451.166626,496.015839 
	C449.971313,495.195953 448.457855,494.617340 447.626648,493.521301 
	C417.470734,453.755890 400.758392,409.325836 402.200836,358.988647 
	C403.483032,314.246155 419.164246,274.445007 445.712006,238.795731 
	C478.343567,194.976837 521.222656,164.043274 570.286499,141.197769 
	C615.850159,119.981995 663.868225,107.694267 713.829041,102.745239 
	C787.059265,95.491196 858.462158,103.388573 927.591125,129.045090 
	C978.726624,148.023529 1024.497314,175.629272 1062.024292,215.721924 
	C1093.098633,248.920898 1114.649292,287.212097 1122.156250,332.580139 
	C1130.490479,382.947632 1119.770996,429.528900 1093.579224,472.870483 
	C1081.531128,492.807465 1066.726074,510.550140 1049.431885,526.210754 
	C1049.416260,510.015442 1049.709961,494.105682 1050.077271,478.197601 
	C1050.102417,477.113098 1050.681763,476.041382 1051.274048,475.159851 
	C1057.132080,480.853668 1062.719482,486.351349 1068.306763,491.849060 
	C1066.493774,477.521545 1063.921265,463.804474 1061.237671,450.109222 
	C1055.183105,419.209747 1030.728760,400.312134 999.132874,402.142670 
	C989.990845,402.672333 980.858704,403.386658 971.728394,404.097809 
	C965.829834,404.557312 960.817810,406.955719 956.931702,411.473145 
	C953.022522,416.017242 949.212524,420.646484 945.309631,425.195984 
	C939.226318,432.287140 937.594604,440.106323 941.175537,449.272217 
	C940.833801,451.682281 940.560120,453.660248 940.403076,455.647461 
	C939.672729,464.886780 938.419006,474.157349 941.843384,483.588013 
	C942.985229,489.798889 944.102600,495.607391 945.211304,501.417572 
	C945.961121,505.346954 947.657410,508.560852 951.758179,510.420776 
	C954.588562,518.137878 957.332458,525.475952 960.085205,533.158203 
	C960.124390,533.960388 960.154724,534.418457 960.081238,535.303467 
	C959.712219,548.091675 954.393921,558.414246 946.999023,567.898987 
M570.469971,354.183960 
	C570.246216,355.157288 570.008362,356.127625 569.800720,357.104340 
	C566.517029,372.550385 573.118042,388.446808 586.367065,397.009003 
	C599.730225,405.644989 616.740112,405.241211 629.570984,395.983582 
	C642.476562,386.672028 648.290100,370.598816 644.265564,355.355865 
	C639.988220,339.155151 625.949829,327.550385 609.732727,326.809570 
	C591.343201,325.969452 577.183228,335.627289 570.469971,354.183960 
M884.661438,395.903137 
	C885.488708,396.463654 886.292542,397.062866 887.146667,397.578857 
	C901.862366,406.468597 920.396179,404.678467 933.042297,393.156647 
	C945.398560,381.898834 948.950500,363.345825 941.639648,348.250031 
	C934.202087,332.892395 917.509338,324.056152 900.612122,327.219116 
	C885.182129,330.107391 874.611084,339.374847 870.429749,354.488647 
	C865.905884,370.841064 870.885925,384.686005 884.661438,395.903137 
M775.239014,331.166473 
	C768.918579,327.744385 762.150696,326.313324 755.005737,326.817017 
	C739.650574,327.899567 728.503967,335.520905 722.298950,349.453918 
	C716.082581,363.412537 717.871887,376.959076 727.484497,388.882629 
	C737.104431,400.815216 749.976624,405.284607 764.947205,402.338867 
	C780.608154,399.257263 792.419006,386.807922 794.905945,371.757507 
	C797.623169,355.313965 790.565002,340.387848 775.239014,331.166473 
z"/>
<path fill="#2DC590" opacity="1.000000" stroke="none" 
	d="
M407.915100,679.605286 
	C404.705322,665.848938 403.897430,651.972290 406.308838,638.027100 
	C407.980042,628.362549 409.858276,618.725891 411.949402,609.143372 
	C417.830017,582.195984 434.943207,565.579041 460.599274,557.157471 
	C466.256866,555.300415 472.188202,554.277405 478.295166,553.169189 
	C477.235504,554.907837 475.954620,556.435120 474.499115,557.772400 
	C467.512970,564.190918 468.954010,572.267883 477.879822,576.592896 
	C477.968262,580.015747 477.997589,583.001587 477.711426,586.178833 
	C476.694519,588.360352 475.247742,590.421387 475.428680,592.327881 
	C476.014557,598.499756 477.197998,604.614929 478.125305,611.165405 
	C478.065460,613.076416 477.963379,614.576050 478.008057,616.071350 
	C478.518921,633.172058 474.242706,630.988708 493.774963,630.966797 
	C520.702332,656.358643 547.315491,681.559998 573.928772,706.761292 
	C576.900269,709.575073 579.872864,712.387695 583.039551,715.385010 
	C570.744812,720.863098 545.323975,721.750854 529.783386,717.406006 
	C501.462097,709.488098 474.666321,697.625977 447.883392,685.710815 
	C435.166412,680.053284 421.818054,677.841492 407.915100,679.605286 
z"/>
<path fill="#DBE0E3" opacity="1.000000" stroke="none" 
	d="
M1370.986816,372.906250 
	C1370.973389,340.448364 1393.008423,314.984039 1423.983887,311.174988 
	C1453.807373,307.507538 1482.126709,327.071411 1489.454102,356.404236 
	C1495.920532,382.289581 1484.406616,409.306488 1461.323120,422.924042 
	C1458.565918,424.550629 1455.978516,426.877014 1454.058228,429.438293 
	C1446.279053,439.813904 1438.791138,450.408020 1430.163574,460.799042 
	C1430.163574,451.040283 1430.163574,441.281525 1430.163574,431.728973 
	C1391.209229,423.065460 1372.030273,403.950470 1370.986816,372.906250 
M1435.321411,373.811584 
	C1435.497314,371.698608 1436.495972,369.161316 1435.672119,367.563812 
	C1434.111572,364.537201 1430.608398,363.809692 1428.124756,365.987579 
	C1426.609253,367.316437 1425.482788,370.900543 1426.210205,372.607025 
	C1427.846924,376.446503 1431.290771,376.816986 1435.321411,373.811584 
M1405.184326,366.440277 
	C1402.850220,370.492340 1403.356323,373.624664 1406.603760,375.225677 
	C1409.550903,376.678650 1413.410522,375.271729 1414.250244,372.005646 
	C1414.637451,370.499573 1414.217041,367.565033 1413.345459,367.193146 
	C1411.054688,366.215576 1408.315430,366.288574 1405.184326,366.440277 
M1457.364380,367.046570 
	C1454.734131,364.304443 1451.531616,363.884949 1449.225952,366.735748 
	C1448.039307,368.203094 1447.705322,372.005249 1448.756348,373.217285 
	C1450.048584,374.707489 1453.495728,375.573608 1455.459473,374.955597 
	C1458.691284,373.938599 1459.612305,370.949951 1457.364380,367.046570 
z"/>
<path fill="#DBE0E3" opacity="1.000000" stroke="none" 
	d="
M144.464966,641.545044 
	C157.465042,616.778442 180.561584,604.675903 207.903381,608.058289 
	C231.499847,610.977417 251.797562,629.873230 257.474365,654.205688 
	C263.450012,679.818970 251.489807,706.645325 228.377228,719.864075 
	C226.022369,721.210815 223.806824,723.191895 222.189133,725.370544 
	C214.371902,735.898621 206.781403,746.595093 197.882965,756.996033 
	C197.882965,749.801453 197.883743,742.606873 197.882751,735.412292 
	C197.881699,727.883301 197.880951,727.883301 190.362381,726.942749 
	C153.630875,722.347656 129.553070,683.449829 141.753067,648.387878 
	C142.517944,646.189697 143.443802,644.047485 144.464966,641.545044 
M203.773941,668.813965 
	C204.122162,663.041870 201.720261,659.952209 197.689316,661.530273 
	C195.860504,662.246338 193.666611,664.552429 193.510376,666.304199 
	C193.356110,668.033936 195.177094,670.509094 196.823669,671.701233 
	C199.517929,673.651794 201.801285,671.957825 203.773941,668.813965 
M221.438690,671.993225 
	C224.996384,671.605225 226.698425,669.252502 225.772202,666.161194 
	C225.192474,664.226379 222.875900,661.612793 221.217010,661.521790 
	C219.386246,661.421387 216.420258,663.465027 215.710388,665.268372 
	C214.136581,669.266296 216.806686,671.330444 221.438690,671.993225 
M181.071091,663.693176 
	C178.856949,660.788330 175.993607,660.155823 173.401062,662.633728 
	C172.122528,663.855774 170.941345,667.102661 171.626358,668.045715 
	C172.950363,669.868408 175.680450,671.821899 177.734589,671.726074 
	C182.233994,671.516174 182.532379,668.021423 181.071091,663.693176 
z"/>
<path fill="#F0C89E" opacity="1.000000" stroke="none" 
	d="
M478.151245,610.751953 
	C477.197998,604.614929 476.014557,598.499756 475.428680,592.327881 
	C475.247742,590.421387 476.694519,588.360352 478.075653,586.285522 
	C480.498444,586.696655 482.229706,587.239563 483.986633,587.680237 
	C494.822205,590.398254 505.663544,593.093140 516.666992,596.076416 
	C521.515503,599.062500 523.881409,603.083130 524.350037,608.513184 
	C524.922058,615.142090 526.113403,621.721130 526.580811,628.353882 
	C526.823730,631.801392 528.453918,633.564331 531.182190,635.272644 
	C549.528015,646.759705 567.577393,658.735657 586.147827,669.842407 
	C595.850464,675.645386 603.384338,682.686401 606.914490,693.967041 
	C609.102844,705.429016 607.551392,715.856506 600.740479,724.977173 
	C598.299194,728.246460 597.417175,731.210083 598.608521,735.222290 
	C598.228821,736.825928 598.014648,738.138550 597.800537,739.451172 
	C597.686096,739.572021 597.542786,739.676086 597.461365,739.816101 
	C587.981567,756.135010 582.623047,758.347656 565.686462,750.128235 
	C549.462219,742.254517 531.830200,740.873108 514.729919,736.935852 
	C485.759674,730.265564 456.842407,723.365051 427.521667,716.459106 
	C415.967896,710.481506 412.228699,699.742859 409.153778,688.638794 
	C408.413177,685.964294 408.266205,683.125305 407.880676,679.983643 
	C421.818054,677.841492 435.166412,680.053284 447.883392,685.710815 
	C474.666321,697.625977 501.462097,709.488098 529.783386,717.406006 
	C545.323975,721.750854 570.744812,720.863098 583.039551,715.385010 
	C579.872864,712.387695 576.900269,709.575073 573.928772,706.761292 
	C547.315491,681.559998 520.702332,656.358643 493.626526,630.710327 
	C486.904297,624.725525 481.437744,618.577454 478.151245,610.751953 
z"/>
<path fill="#E3B98F" opacity="1.000000" stroke="none" 
	d="
M1049.939575,643.997925 
	C1050.242065,643.064575 1050.858643,642.109375 1050.795654,641.201355 
	C1050.398193,635.474854 1049.688110,629.765320 1049.457275,624.035034 
	C1049.394043,622.467407 1050.457520,620.755310 1051.301147,619.279297 
	C1052.083374,617.910583 1053.262451,616.768616 1054.529419,615.600098 
	C1056.199707,620.699890 1060.673584,620.282593 1064.065063,621.787048 
	C1064.468018,621.160095 1064.871094,620.533142 1065.274048,619.906189 
	C1061.807739,617.801575 1058.341309,615.697021 1054.875000,613.592407 
	C1050.232178,610.480469 1045.412598,607.591553 1041.044922,604.132324 
	C1039.569214,602.963562 1039.237793,600.349976 1038.383423,598.396667 
	C1040.352173,597.959839 1042.473511,596.837585 1044.256836,597.234375 
	C1047.570679,597.971802 1050.687500,599.595154 1054.485840,601.141846 
	C1063.179443,605.602051 1071.192505,609.938599 1079.396729,613.876953 
	C1084.611328,616.380066 1090.010498,618.599609 1095.511108,620.376221 
	C1100.357544,621.941528 1103.641479,619.155518 1103.876221,614.189026 
	C1104.208984,607.144287 1104.664429,600.105469 1105.067383,593.064087 
	C1106.153564,593.771118 1107.394165,595.242432 1108.300659,595.059509 
	C1113.653931,593.978516 1114.035767,597.633972 1114.589600,601.890381 
	C1114.815063,605.150391 1114.485474,607.994141 1115.463135,610.278564 
	C1120.234619,621.426514 1120.450439,632.347351 1115.109619,643.361084 
	C1113.236328,647.224304 1114.923828,649.706177 1119.089111,651.095581 
	C1127.331055,656.925476 1135.054321,663.059265 1143.536377,667.849854 
	C1158.322876,676.201111 1172.406982,685.041443 1180.931763,700.490845 
	C1181.742065,701.959412 1183.601685,702.849060 1184.974121,704.007507 
	C1186.175415,707.612915 1187.546265,711.172363 1188.539795,714.834229 
	C1190.189087,720.911987 1187.927612,725.650818 1182.815552,728.985352 
	C1170.309326,737.143066 1157.031738,737.021057 1143.701416,731.674500 
	C1131.007324,726.583069 1121.256714,717.515869 1113.360474,706.566040 
	C1108.706055,700.111572 1104.749756,693.153687 1100.095947,685.870728 
	C1095.677368,679.283936 1092.187134,672.764893 1087.412109,667.386597 
	C1084.328613,663.913513 1079.587646,661.584900 1075.180054,659.701050 
	C1070.198853,657.571960 1064.667480,656.769348 1059.544922,654.920410 
	C1054.496338,653.098206 1050.694824,649.786804 1049.939575,643.997925 
z"/>
<path fill="#DBE0E3" opacity="1.000000" stroke="none" 
	d="
M21.990099,350.954224 
	C11.891005,333.895020 15.601944,316.441620 31.725227,303.961426 
	C54.357227,286.443176 92.323990,286.475830 114.954086,304.032990 
	C135.525864,319.993256 135.537689,345.427521 114.868225,361.255615 
	C104.531853,369.170898 92.650658,373.143066 79.727570,374.020935 
	C76.440277,374.244232 73.124924,374.054413 69.122406,374.054413 
	C69.122406,379.566498 69.122406,384.424713 69.122406,389.185730 
	C68.097633,389.298370 67.669884,389.482483 67.495514,389.345032 
	C54.439671,379.057007 41.347008,368.813934 28.417078,358.369446 
	C26.000875,356.417755 24.243114,353.650909 21.990099,350.954224 
M45.063885,337.343414 
	C48.145920,339.551819 51.203758,339.369476 53.126350,336.151733 
	C54.108501,334.507935 54.626591,331.073944 53.677395,330.122894 
	C52.009800,328.452087 48.985226,327.168579 46.652344,327.345886 
	C42.740730,327.643188 41.951649,331.896637 45.063885,337.343414 
M66.344147,333.202728 
	C67.382515,336.525482 69.467575,339.131500 73.066063,338.433960 
	C74.879868,338.082336 77.035690,335.932556 77.710526,334.105896 
	C78.713715,331.390442 78.073357,328.429810 74.650658,327.250763 
	C70.700455,325.890045 68.010422,327.593018 66.344147,333.202728 
M99.345070,327.956390 
	C95.875183,326.131104 92.385353,326.520874 91.004837,330.125671 
	C90.241501,332.118866 91.163544,336.139862 92.738808,337.260284 
	C94.336525,338.396698 98.348595,337.974701 100.095032,336.646545 
	C102.890022,334.520935 102.688568,331.155487 99.345070,327.956390 
z"/>
<path fill="#DBE0E3" opacity="1.000000" stroke="none" 
	d="
M277.100830,165.746338 
	C276.982635,167.600540 276.865417,169.019241 276.678589,171.280502 
	C273.897125,169.070297 271.747681,167.347687 269.582794,165.644653 
	C261.484283,159.273849 253.476990,152.782196 245.260010,146.567902 
	C225.334503,131.498642 225.810989,107.912155 246.432388,93.725136 
	C267.546112,79.199448 299.897003,80.420303 319.357330,96.477180 
	C335.560974,109.846924 335.495941,131.501923 319.207153,144.711426 
	C309.283295,152.759232 297.819794,156.605133 285.155060,157.188171 
	C276.628418,157.580704 277.113464,155.848709 277.100830,165.746338 
M275.963440,117.653374 
	C274.307220,120.803131 274.685760,123.826675 278.017731,125.113892 
	C279.683624,125.757469 283.110077,125.090515 283.942719,123.829453 
	C285.002991,122.223709 285.128510,118.817085 284.073853,117.257172 
	C282.168945,114.439690 279.075043,114.304214 275.963440,117.653374 
M264.356079,122.021362 
	C264.791779,118.317642 263.323242,115.471207 259.554993,115.433449 
	C257.814392,115.415993 254.868973,117.523087 254.598282,119.045403 
	C254.265411,120.917442 255.604538,123.929344 257.207397,125.114716 
	C259.928345,127.126991 262.506531,125.613281 264.356079,122.021362 
M304.289551,124.709610 
	C306.771698,122.134094 306.997131,119.018494 304.529144,116.810501 
	C303.244690,115.661385 299.544739,115.330399 298.453125,116.313904 
	C297.020721,117.604416 296.178864,120.805290 296.709534,122.737930 
	C297.598907,125.976707 300.532135,126.542343 304.289551,124.709610 
z"/>
<path fill="#F2C79E" opacity="1.000000" stroke="none" 
	d="
M473.089325,524.097107 
	C472.824677,524.044861 472.589447,523.931580 472.216034,523.247314 
	C471.658630,522.156738 471.268799,521.576172 470.878967,520.995544 
	C470.878967,520.995544 470.991150,521.025085 470.985199,520.699463 
	C467.628082,513.003662 465.745911,505.532837 466.824677,497.197418 
	C467.687103,490.533569 466.928589,483.675110 467.278564,476.923218 
	C467.445435,473.704315 467.577698,469.823975 469.352722,467.470367 
	C474.930603,460.074524 481.280365,453.260742 487.621521,445.883911 
	C493.939545,451.364807 500.044525,456.471619 505.936523,461.813416 
	C516.748108,471.615387 528.869995,480.099335 537.025940,492.596802 
	C547.246643,508.258118 549.040466,512.009766 535.952026,531.146790 
	C534.833679,532.781982 533.291809,534.121460 532.062561,535.689087 
	C531.266663,536.704041 530.681763,537.884338 529.663574,539.071960 
	C527.776367,540.086914 526.222717,541.012085 524.680237,541.955383 
	C508.048004,552.126221 503.541840,554.313965 488.235077,542.809509 
	C487.839905,542.512512 487.410767,542.260681 487.100739,541.675049 
	C487.327454,539.939209 488.034851,538.192261 487.460419,537.156067 
	C485.974823,534.476440 484.400360,531.370544 481.976196,529.808716 
	C479.032501,527.912109 477.970581,522.873413 473.089325,524.097107 
z"/>
<path fill="#E3B98F" opacity="1.000000" stroke="none" 
	d="
M1051.003296,474.963715 
	C1050.681763,476.041382 1050.102417,477.113098 1050.077271,478.197601 
	C1049.709961,494.105682 1049.416260,510.015442 1049.163696,526.374512 
	C1049.172119,527.033691 1049.121826,527.243164 1048.715088,527.545532 
	C1044.941040,522.325562 1041.248657,518.327637 1033.794312,520.890076 
	C1030.932373,521.873840 1027.238525,520.812012 1024.002686,520.237610 
	C1020.086243,519.542358 1016.234802,518.444336 1012.389404,517.395203 
	C1008.017944,516.202515 1004.187988,516.952576 1000.885864,520.141296 
	C997.060669,523.835022 993.193237,527.485107 989.376221,531.187256 
	C984.008118,536.393738 980.848022,536.079895 976.981812,529.518799 
	C975.310791,526.682922 973.829834,523.588623 973.024170,520.418152 
	C971.063660,512.703491 969.548584,504.875641 967.883179,496.619934 
	C967.851746,486.330170 967.791382,476.513885 967.851624,466.373535 
	C972.769409,455.985443 981.562439,451.372284 994.268555,452.359131 
	C1012.526733,453.777100 1029.164673,460.072968 1044.699341,469.477661 
	C1047.047241,470.899109 1048.913940,473.115204 1051.003296,474.963715 
z"/>
<path fill="#C53F34" opacity="1.000000" stroke="none" 
	d="
M530.002258,538.990540 
	C530.681763,537.884338 531.266663,536.704041 532.062561,535.689087 
	C533.291809,534.121460 534.833679,532.781982 535.952026,531.146790 
	C549.040466,512.009766 547.246643,508.258118 537.025940,492.596802 
	C528.869995,480.099335 516.748108,471.615387 505.936523,461.813416 
	C500.044525,456.471619 493.939545,451.364807 487.621521,445.883911 
	C481.280365,453.260742 474.930603,460.074524 469.352722,467.470367 
	C467.577698,469.823975 467.445435,473.704315 467.278564,476.923218 
	C466.928589,483.675110 467.687103,490.533569 466.824677,497.197418 
	C465.745911,505.532837 467.628082,513.003662 470.967957,520.754883 
	C469.564484,520.303162 467.781464,519.777344 466.846375,518.585876 
	C462.245850,512.724304 457.870422,506.686005 453.274963,500.105164 
	C452.761475,498.974152 452.388489,498.448090 452.015533,497.922028 
	C452.015533,497.922028 451.997284,498.001434 452.091064,497.679840 
	C451.813446,496.887817 451.442078,496.417389 451.070679,495.946960 
	C451.070679,495.946960 451.086975,496.026184 451.126801,496.020996 
	C447.924225,484.818573 445.046265,473.577881 446.002533,461.735321 
	C447.104645,448.086731 450.580353,435.161713 458.033569,423.575348 
	C463.835297,414.556274 472.060547,409.546448 483.625916,410.354919 
	C485.418335,422.029633 486.685089,433.279541 488.051849,445.417603 
	C496.067627,439.254852 504.726410,438.572662 513.662170,438.977509 
	C528.558594,439.652466 539.395813,446.924561 546.720825,459.555969 
	C551.603577,467.975922 552.518799,477.494629 552.965210,486.976532 
	C554.088928,510.844757 551.113953,534.388306 546.612915,557.834473 
	C542.460754,556.956787 538.692932,556.070801 534.724731,554.976074 
	C534.075867,554.142883 533.627441,553.518311 533.133484,552.501953 
	C532.059448,547.736877 531.030823,543.363708 530.002258,538.990540 
z"/>
<path fill="#DBDFE3" opacity="1.000000" stroke="none" 
	d="
M1292.923950,618.250793 
	C1292.889282,621.500122 1292.889282,624.299316 1292.889282,627.020691 
	C1292.129883,627.168884 1291.690308,627.393738 1291.528687,627.266235 
	C1280.828247,618.830261 1269.661377,610.904541 1259.594849,601.766846 
	C1247.149292,590.469604 1247.959595,573.045898 1260.452148,561.693665 
	C1278.885986,544.942505 1312.781128,544.682922 1331.456909,561.149963 
	C1346.687866,574.579529 1344.745483,595.036438 1327.092529,606.764221 
	C1318.229004,612.652832 1308.288696,614.964111 1297.805664,615.631653 
	C1296.150635,615.737000 1294.572388,617.047424 1292.923950,618.250793 
M1291.292603,580.123413 
	C1291.900269,582.171814 1292.059082,584.584717 1293.302979,586.116577 
	C1293.934570,586.894470 1296.980591,586.682922 1298.096558,585.826233 
	C1299.236694,584.951050 1299.938477,582.685181 1299.797485,581.121521 
	C1299.440552,577.166870 1295.701172,576.478760 1291.292603,580.123413 
M1279.899658,578.832153 
	C1275.743042,576.718628 1272.563232,577.446594 1272.253906,580.896057 
	C1272.102783,582.582336 1272.908691,584.936768 1274.137573,585.980469 
	C1275.121460,586.816040 1278.470825,586.737976 1278.891235,585.997803 
	C1279.951782,584.130859 1279.951782,581.661316 1279.899658,578.832153 
M1311.040527,578.867859 
	C1309.333496,581.640869 1309.262939,584.491394 1312.214478,586.118286 
	C1313.529175,586.843018 1316.406128,586.489868 1317.441406,585.472900 
	C1318.482666,584.449951 1318.867554,581.638977 1318.206055,580.244141 
	C1316.971802,577.641174 1314.489502,576.563538 1311.040527,578.867859 
z"/>
<path fill="#C74D2C" opacity="1.000000" stroke="none" 
	d="
M967.854126,497.093384 
	C969.548584,504.875641 971.063660,512.703491 973.024170,520.418152 
	C973.829834,523.588623 975.310791,526.682922 976.981812,529.518799 
	C980.848022,536.079895 984.008118,536.393738 989.376221,531.187256 
	C993.193237,527.485107 997.060669,523.835022 1000.885864,520.141296 
	C1004.187988,516.952576 1008.017944,516.202515 1012.389404,517.395203 
	C1016.234802,518.444336 1020.086243,519.542358 1024.002686,520.237610 
	C1027.238525,520.812012 1030.932373,521.873840 1033.794312,520.890076 
	C1041.248657,518.327637 1044.941040,522.325562 1048.613037,527.852051 
	C1049.283813,542.172424 1046.504028,555.554565 1039.623291,568.355103 
	C1037.386353,570.198914 1035.328735,571.735229 1032.648438,573.574524 
	C1028.288086,574.470703 1024.335693,576.156677 1020.849609,575.471191 
	C1004.206055,572.198730 987.953918,567.510803 972.858154,559.465881 
	C967.885498,556.815918 964.593079,552.896851 963.235962,547.406433 
	C962.204407,543.233337 961.201111,539.053345 960.185181,534.876465 
	C960.154724,534.418457 960.124390,533.960388 960.128235,532.727173 
	C959.454834,524.655090 958.747253,517.358215 958.041870,509.618134 
	C958.421875,506.155060 958.799683,503.135254 959.536499,500.076660 
	C962.548401,499.056396 965.201233,498.074890 967.854126,497.093384 
z"/>
<path fill="#DBDFE3" opacity="1.000000" stroke="none" 
	d="
M284.112366,489.113281 
	C284.004883,487.357727 283.900848,486.057800 283.773804,484.470886 
	C276.157806,483.301849 269.194031,480.965271 263.657288,475.430969 
	C251.612701,463.391876 251.655502,444.295044 263.835693,432.497894 
	C275.943787,420.770569 295.529022,421.285858 306.794800,433.628174 
	C318.259460,446.188446 317.729004,465.837524 304.496857,476.328003 
	C297.656525,481.751068 292.655823,488.234406 287.729584,495.069031 
	C286.967407,496.126373 286.132782,497.131439 284.115814,498.027557 
	C284.115814,495.208008 284.115814,492.388489 284.112366,489.113281 
M298.629150,451.180054 
	C297.576172,452.553131 296.523193,453.926178 295.470184,455.299255 
	C296.725891,456.150604 297.941559,457.577942 299.250122,457.668915 
	C300.275757,457.740143 302.466156,455.722809 302.325836,455.383698 
	C301.686310,453.838226 300.406097,452.557861 298.629150,451.180054 
M281.333313,453.914032 
	C282.341370,455.247345 283.152802,456.875824 284.466187,457.750824 
	C284.914551,458.049500 287.237640,456.670807 287.589294,455.667725 
	C287.963196,454.601074 287.014923,453.070953 286.643982,451.743195 
	C284.973877,452.237671 283.303741,452.732147 281.333313,453.914032 
M271.225006,451.390381 
	C269.876068,452.485199 268.346313,453.440338 267.312561,454.778595 
	C267.071106,455.091187 268.352570,457.346741 269.218597,457.562286 
	C270.415924,457.860260 271.883575,457.072113 273.235443,456.749115 
	C272.791290,455.059143 272.347137,453.369202 271.225006,451.390381 
z"/>
<path fill="#DBDFE3" opacity="1.000000" stroke="none" 
	d="
M1377.734375,772.646118 
	C1376.724609,773.931763 1375.910400,774.934631 1374.304932,776.912415 
	C1374.304932,771.446167 1374.304932,767.083496 1374.304932,762.442993 
	C1372.283813,761.919067 1370.745483,761.434143 1369.172607,761.125977 
	C1355.286743,758.406616 1345.236328,746.957947 1344.807617,733.328125 
	C1344.331909,718.204956 1353.567993,705.845581 1367.913696,702.408691 
	C1381.175659,699.231445 1395.313110,705.852539 1401.541748,718.157715 
	C1407.998047,730.912415 1405.047729,746.410217 1393.339600,754.944092 
	C1386.741699,759.753113 1382.671509,766.221375 1377.734375,772.646118 
M1389.318115,729.138977 
	C1388.000854,730.308411 1386.683716,731.477905 1385.366455,732.647278 
	C1386.311035,733.674866 1387.123901,735.314514 1388.237793,735.554016 
	C1389.304077,735.783264 1391.752808,734.501038 1391.725464,733.981750 
	C1391.641113,732.385010 1390.661743,730.835510 1389.318115,729.138977 
M1376.774170,735.191895 
	C1378.512085,732.812073 1378.709839,730.565918 1375.613281,729.347961 
	C1374.653320,728.970398 1372.964478,729.463257 1372.095825,730.162109 
	C1371.454224,730.678345 1371.094360,732.801086 1371.489502,733.121155 
	C1372.823853,734.202148 1374.551025,734.798523 1376.774170,735.191895 
M1357.155518,733.223816 
	C1358.647095,733.968994 1360.104126,735.127563 1361.647217,735.256714 
	C1362.267822,735.308594 1363.691040,733.061401 1363.616577,731.935608 
	C1363.551025,730.945190 1361.494995,729.104736 1361.034058,729.303162 
	C1359.545288,729.944031 1358.386475,731.351807 1357.155518,733.223816 
z"/>
<path fill="#DBDFE3" opacity="1.000000" stroke="none" 
	d="
M1314.738281,177.813141 
	C1317.535645,163.048431 1328.318481,152.860947 1341.683716,151.998749 
	C1356.252075,151.058929 1368.503296,159.079849 1372.983643,172.490875 
	C1377.432007,185.806000 1372.317261,199.513809 1360.043701,207.622360 
	C1358.161133,208.866013 1356.473267,210.573105 1355.088989,212.369171 
	C1351.646973,216.835037 1348.432129,221.475998 1344.095703,225.901703 
	C1344.095703,221.431793 1344.095703,216.961884 1344.095703,212.731384 
	C1321.847534,206.343140 1312.752563,195.460526 1314.738281,177.813141 
M1347.832397,183.268845 
	C1346.791016,181.886017 1345.940552,180.232605 1344.593994,179.281891 
	C1344.179077,178.988953 1341.779419,180.400162 1341.434326,181.419174 
	C1341.072021,182.488983 1342.052734,185.144226 1342.502197,185.157043 
	C1344.196411,185.205338 1345.913330,184.460403 1347.832397,183.268845 
M1330.305054,179.175232 
	C1329.239258,180.494247 1327.916138,181.701599 1327.265137,183.200775 
	C1327.071167,183.647842 1328.748413,185.620010 1329.590942,185.635101 
	C1330.816650,185.657074 1333.174194,184.348648 1333.104248,183.940369 
	C1332.827148,182.321365 1331.793579,180.831818 1330.305054,179.175232 
M1355.283691,182.498642 
	C1356.815674,183.556519 1358.347534,184.614410 1359.879517,185.672272 
	C1360.533081,184.331909 1361.520996,183.033752 1361.697876,181.633179 
	C1361.784912,180.943787 1360.137695,179.279144 1359.679688,179.415390 
	C1358.149048,179.870789 1356.800903,180.939987 1355.283691,182.498642 
z"/>
<path fill="#E0BE53" opacity="1.000000" stroke="none" 
	d="
M1049.582642,643.918823 
	C1050.694824,649.786804 1054.496338,653.098206 1059.544922,654.920410 
	C1064.667480,656.769348 1070.198853,657.571960 1075.180054,659.701050 
	C1079.587646,661.584900 1084.328613,663.913513 1087.412109,667.386597 
	C1092.187134,672.764893 1095.677368,679.283936 1099.848999,685.634583 
	C1094.883301,693.581787 1089.780762,701.213684 1084.387939,709.020386 
	C1081.888550,707.831665 1079.837646,705.988770 1077.439697,705.198242 
	C1071.307739,703.176392 1065.014526,701.646606 1058.798706,699.875244 
	C1053.448486,698.350525 1049.365234,691.829651 1049.584961,686.272278 
	C1049.792236,681.031860 1049.367554,675.764038 1049.163818,670.510498 
	C1049.042603,667.383728 1048.484009,664.575012 1052.330933,662.540283 
	C1055.435547,660.898071 1054.268677,658.066528 1051.544434,656.302307 
	C1047.921509,653.956116 1043.984863,652.000427 1040.710815,649.248962 
	C1039.026367,647.833435 1038.485840,645.056641 1037.428467,642.894897 
	C1039.656250,642.556763 1041.903809,641.868530 1044.105713,641.992126 
	C1045.841431,642.089539 1047.521118,643.186707 1049.582642,643.918823 
z"/>
<path fill="#EFEEEE" opacity="1.000000" stroke="none" 
	d="
M1105.037476,592.605713 
	C1104.664429,600.105469 1104.208984,607.144287 1103.876221,614.189026 
	C1103.641479,619.155518 1100.357544,621.941528 1095.511108,620.376221 
	C1090.010498,618.599609 1084.611328,616.380066 1079.396729,613.876953 
	C1071.192505,609.938599 1063.179443,605.602051 1054.827881,601.171631 
	C1054.614746,599.865356 1054.659424,598.821533 1054.704224,597.135742 
	C1054.672485,596.327332 1054.640381,596.160828 1054.608154,595.994324 
	C1054.649292,592.631409 1054.690430,589.268555 1054.791016,585.209106 
	C1054.850464,584.512634 1054.803833,584.021301 1054.803955,584.021301 
	C1054.859009,583.595642 1054.914185,583.169983 1055.255981,582.170410 
	C1058.850708,580.086914 1062.088379,577.497253 1065.480591,577.275452 
	C1074.704590,576.672485 1083.998901,577.249756 1093.255859,577.003479 
	C1098.412598,576.866394 1102.279541,578.483032 1104.807007,583.032104 
	C1104.873779,586.070557 1104.940674,589.108948 1105.037476,592.605713 
z"/>
<path fill="#DCB088" opacity="1.000000" stroke="none" 
	d="
M1184.958984,703.641724 
	C1183.601685,702.849060 1181.742065,701.959412 1180.931763,700.490845 
	C1172.406982,685.041443 1158.322876,676.201111 1143.536377,667.849854 
	C1135.054321,663.059265 1127.331055,656.925476 1119.133545,650.741455 
	C1122.405396,640.292847 1125.809937,630.499084 1129.214478,620.705261 
	C1150.613159,646.324036 1170.974976,672.642578 1184.958984,703.641724 
z"/>
<path fill="#4590D4" opacity="1.000000" stroke="none" 
	d="
M428.461914,737.953735 
	C429.320740,746.976624 429.717377,756.009216 430.088501,765.507202 
	C412.710052,760.898376 395.291534,756.033142 378.045532,750.618530 
	C373.069092,749.056091 367.752747,747.177979 363.642975,741.306824 
	C385.756409,738.582886 406.857635,737.956482 428.461914,737.953735 
z"/>
<path fill="#4590D4" opacity="1.000000" stroke="none" 
	d="
M1072.112793,764.019104 
	C1072.030762,754.935364 1072.298950,745.824524 1072.720947,736.329102 
	C1094.004639,735.932068 1115.121948,736.138062 1136.114868,738.503357 
	C1136.292114,739.158936 1136.469360,739.814514 1136.646729,740.470093 
	C1133.545898,742.404541 1130.675781,745.022461 1127.305908,746.159607 
	C1109.093384,752.306091 1090.756958,758.085815 1072.112793,764.019104 
z"/>
<path fill="#F2F2F2" opacity="1.000000" stroke="none" 
	d="
M137.000000,781.063782 
	C101.074371,781.063782 65.648743,781.063782 30.223118,781.063782 
	C33.160728,777.308228 205.091476,777.171448 208.729630,781.063782 
	C184.986420,781.063782 161.243210,781.063782 137.000000,781.063782 
z"/>
<path fill="#E3ECF1" opacity="1.000000" stroke="none" 
	d="
M1474.000000,762.106689 
	C1490.310791,762.106689 1506.121582,762.106689 1521.932373,762.106689 
	C1519.396362,765.872375 1418.789551,766.562866 1413.154175,763.059143 
	C1414.945923,762.742615 1416.736572,762.157776 1418.529297,762.151062 
	C1436.852661,762.082336 1455.176392,762.107605 1474.000000,762.106689 
z"/>
<path fill="#CBDFF1" opacity="1.000000" stroke="none" 
	d="
M1458.000000,179.203217 
	C1475.295532,179.203445 1492.091187,179.203445 1508.886719,179.203445 
	C1508.967529,179.989532 1509.048340,180.775620 1509.129150,181.561707 
	C1507.636353,182.002502 1506.144653,182.823746 1504.650879,182.827789 
	C1476.214600,182.904739 1447.778320,182.899612 1419.342041,182.845001 
	C1417.883789,182.842194 1416.426758,182.243332 1414.993896,180.873657 
	C1421.927124,178.537338 1429.044800,179.385208 1436.048706,179.236328 
	C1443.196045,179.084381 1450.349365,179.202881 1458.000000,179.203217 
z"/>
<path fill="#EDC856" opacity="1.000000" stroke="none" 
	d="
M1129.205811,620.368347 
	C1125.809937,630.499084 1122.405396,640.292847 1118.956299,650.440674 
	C1114.923828,649.706177 1113.236328,647.224304 1115.109619,643.361084 
	C1120.450439,632.347351 1120.234619,621.426514 1115.463135,610.278564 
	C1114.485474,607.994141 1114.815063,605.150391 1114.735596,602.240967 
	C1119.237793,606.003723 1123.727661,609.922852 1127.742310,614.279846 
	C1128.920410,615.558411 1128.749634,618.079712 1129.205811,620.368347 
z"/>
<path fill="#F0C89E" opacity="1.000000" stroke="none" 
	d="
M473.216248,524.400757 
	C477.970581,522.873413 479.032501,527.912109 481.976196,529.808716 
	C484.400360,531.370544 485.974823,534.476440 487.460419,537.156067 
	C488.034851,538.192261 487.327454,539.939209 487.129333,542.035156 
	C491.061035,547.074158 495.067413,551.440247 498.600891,555.858704 
	C493.500519,555.932678 488.873016,555.939758 484.245758,555.979492 
	C478.222229,556.031189 477.877350,556.414917 478.102661,563.004517 
	C477.987091,567.673645 477.903900,571.914856 477.820740,576.156006 
	C468.954010,572.267883 467.512970,564.190918 474.499115,557.772400 
	C475.954620,556.435120 477.235504,554.907837 478.710419,553.139893 
	C484.397003,544.968201 484.332520,539.811768 478.720764,532.449829 
	C476.817230,529.952637 475.129547,527.290955 473.216248,524.400757 
z"/>
<path fill="#E3ECF1" opacity="1.000000" stroke="none" 
	d="
M1312.002563,652.937012 
	C1306.038574,652.937012 1300.574097,652.937012 1295.109497,652.937012 
	C1297.964600,649.339783 1398.599243,648.861755 1403.809204,652.102722 
	C1401.976807,652.380981 1400.144775,652.898438 1398.311890,652.901733 
	C1369.708618,652.952698 1341.105347,652.937195 1312.002563,652.937012 
z"/>
<path fill="#CBDFF1" opacity="1.000000" stroke="none" 
	d="
M39.014400,406.815002 
	C36.464550,405.799408 35.910057,404.546509 38.465248,403.575134 
	C39.793221,403.070282 41.422478,403.297974 42.915710,403.296875 
	C63.221573,403.282288 83.527504,403.264313 103.833237,403.318115 
	C105.817474,403.323395 107.800461,403.797943 109.784027,404.054657 
	C109.823135,404.651428 109.862244,405.248169 109.901352,405.844940 
	C108.206665,406.197723 106.512741,406.853149 104.817184,406.857391 
	C83.013786,406.911987 61.210152,406.873688 39.014400,406.815002 
z"/>
<path fill="#EFEEEE" opacity="1.000000" stroke="none" 
	d="
M244.000000,407.117798 
	C234.094223,407.117828 224.688446,407.117828 215.282669,407.117828 
	C215.172653,406.429291 215.062622,405.740753 214.952606,405.052216 
	C216.520813,404.706207 218.088379,404.061890 219.657318,404.058533 
	C246.634186,404.000824 273.611206,404.012756 300.588165,404.051666 
	C302.070557,404.053802 303.552399,404.424591 305.039856,405.757233 
	C298.555420,407.381805 291.988373,407.045349 285.464935,407.103973 
	C278.637970,407.165314 271.810028,407.117645 264.982513,407.117676 
	C258.154999,407.117676 251.327499,407.117706 244.000000,407.117798 
z"/>
<path fill="#F2F2F2" opacity="1.000000" stroke="none" 
	d="
M271.000183,60.005043 
	C292.586945,60.005043 313.673737,60.005043 334.760498,60.005043 
	C331.458466,63.795696 253.323151,63.780014 250.108032,60.005043 
	C256.905426,60.005043 263.702820,60.005043 271.000183,60.005043 
z"/>
<path fill="#F2F2F2" opacity="1.000000" stroke="none" 
	d="
M316.900818,508.994629 
	C293.643738,508.993317 270.871552,508.997345 248.099609,508.991760 
	C248.114258,508.190308 248.128922,507.388885 248.143570,506.587433 
	C274.176819,506.587433 300.210083,506.587433 326.243347,506.587433 
	C326.290222,507.204468 326.337067,507.821503 326.383942,508.438538 
	C323.384552,508.623901 320.385193,508.809296 316.900818,508.994629 
z"/>
<path fill="#CBDFF1" opacity="1.000000" stroke="none" 
	d="
M1278.659302,226.161972 
	C1297.039307,226.208130 1314.990356,226.279709 1332.940796,226.417816 
	C1333.425659,226.421539 1333.905029,227.144089 1335.392456,228.339645 
	C1332.935059,228.948517 1331.396973,229.654099 1329.855347,229.661728 
	C1313.392456,229.743225 1296.928711,229.755051 1280.466187,229.642349 
	C1279.062622,229.632736 1277.666138,228.591278 1276.266357,228.029114 
	C1276.920898,227.418213 1277.575562,226.807327 1278.659302,226.161972 
z"/>
<path fill="#C1C4C5" opacity="1.000000" stroke="none" 
	d="
M1104.857666,582.634521 
	C1102.279541,578.483032 1098.412598,576.866394 1093.255859,577.003479 
	C1083.998901,577.249756 1074.704590,576.672485 1065.480591,577.275452 
	C1062.088379,577.497253 1058.850708,580.086914 1055.308472,581.852783 
	C1055.181885,575.721619 1056.918213,573.936768 1064.658936,572.437866 
	C1074.914917,572.501404 1084.841431,572.750366 1094.768921,572.934021 
	C1101.865845,573.065369 1104.229248,575.191772 1104.857666,582.634521 
z"/>
<path fill="#E3ECF1" opacity="1.000000" stroke="none" 
	d="
M247.984863,423.407288 
	C233.812790,423.433685 220.045319,423.433685 206.277847,423.433685 
	C206.197693,422.722137 206.117554,422.010590 206.037399,421.299042 
	C207.228439,420.904907 208.417191,420.176331 209.610870,420.168121 
	C222.053314,420.082855 234.496826,420.075623 246.939011,420.175781 
	C248.060608,420.184784 249.174942,421.093994 250.292633,421.585144 
	C249.658249,422.183746 249.023865,422.782349 247.984863,423.407288 
z"/>
<path fill="#CBDFF1" opacity="1.000000" stroke="none" 
	d="
M1354.002686,628.096802 
	C1362.290039,628.168884 1370.078003,628.240967 1378.904297,628.322571 
	C1375.167969,632.559570 1340.483032,632.925415 1335.957642,629.520386 
	C1341.973389,626.884094 1347.869751,628.634705 1354.002686,628.096802 
z"/>
<path fill="#E3ECF1" opacity="1.000000" stroke="none" 
	d="
M235.919342,192.847504 
	C234.930634,192.167847 234.346939,191.511063 233.763245,190.854279 
	C234.923294,190.420013 236.078720,189.623962 237.244110,189.609085 
	C246.075073,189.496292 254.907990,189.535950 263.740295,189.529465 
	C266.735321,189.527267 269.730347,189.529129 272.749420,190.594727 
	C267.020508,194.205734 260.793732,192.537476 254.818665,192.830444 
	C248.668030,193.132050 242.490280,192.880096 235.919342,192.847504 
z"/>
<path fill="#F2F2F2" opacity="1.000000" stroke="none" 
	d="
M1428.958740,157.005524 
	C1432.909424,157.005524 1436.367920,157.005524 1439.826294,157.005524 
	C1436.567993,160.691208 1400.052124,160.819122 1396.293823,158.574371 
	C1396.572510,158.183578 1396.840210,157.468750 1397.120850,157.463547 
	C1407.568726,157.270111 1418.017578,157.142258 1428.958740,157.005524 
z"/>
<path fill="#CBDFF1" opacity="1.000000" stroke="none" 
	d="
M138.966339,752.225464 
	C128.115662,752.412109 117.637878,752.412109 107.160088,752.412109 
	C107.046722,751.811218 106.933365,751.210327 106.820007,750.609436 
	C107.939919,750.113525 109.054268,749.202759 110.180641,749.187561 
	C118.977333,749.069397 127.776833,749.075439 136.574158,749.167603 
	C138.183594,749.184387 140.655334,748.944763 138.966339,752.225464 
z"/>
<path fill="#F2F2F2" opacity="1.000000" stroke="none" 
	d="
M1405.001221,783.995850 
	C1398.682251,783.995850 1392.862915,783.995850 1387.043457,783.995850 
	C1389.816040,780.337585 1423.932739,780.104004 1427.704834,782.466064 
	C1427.731934,782.958191 1427.759033,783.450317 1427.786133,783.942383 
	C1420.357666,783.960205 1412.929199,783.978027 1405.001221,783.995850 
z"/>
<path fill="#EFEEEE" opacity="1.000000" stroke="none" 
	d="
M227.297241,60.000740 
	C231.131851,60.139954 234.508530,60.283360 237.885193,60.426769 
	C237.852631,61.060642 237.820053,61.694515 237.787491,62.328388 
	C233.290207,62.328388 228.792908,62.328388 224.295624,62.328388 
	C224.142868,62.035149 223.990112,61.741909 223.837341,61.448666 
	C224.837997,60.967426 225.838654,60.486183 227.297241,60.000740 
z"/>
<path fill="#C53F34" opacity="1.000000" stroke="none" 
	d="
M470.658386,521.343872 
	C471.268799,521.576172 471.658630,522.156738 472.077362,523.106750 
	C471.550140,522.881531 470.993958,522.286865 470.658386,521.343872 
z"/>
<path fill="#F2F2F2" opacity="1.000000" stroke="none" 
	d="
M451.928894,498.248932 
	C452.388489,498.448090 452.761475,498.974152 453.069092,499.847595 
	C452.616577,499.655273 452.229431,499.115570 451.928894,498.248932 
z"/>
<path fill="#F2F2F2" opacity="1.000000" stroke="none" 
	d="
M450.801758,496.238281 
	C451.442078,496.417389 451.813446,496.887817 452.130737,497.689056 
	C451.562073,497.523102 451.047455,497.026337 450.801758,496.238281 
z"/>
<path fill="#4EA0EC" opacity="1.000000" stroke="none" 
	d="
M598.774048,734.931274 
	C597.417175,731.210083 598.299194,728.246460 600.740479,724.977173 
	C607.551392,715.856506 609.102844,705.429016 606.992859,693.516357 
	C608.054688,679.778687 609.481445,666.904907 609.869019,653.999878 
	C610.217041,642.411499 609.423035,630.788879 609.132812,619.181335 
	C650.845947,647.410095 692.559021,675.638855 735.271606,704.544006 
	C735.271606,678.798828 735.271606,654.264648 735.271606,628.827698 
	C775.559265,631.064941 814.942139,628.591919 854.358215,621.260864 
	C853.761780,625.240295 852.813354,629.276611 851.810547,633.299255 
	C850.250732,639.556458 849.712524,645.685486 853.926453,651.642822 
	C851.343262,664.788574 848.632568,677.579651 846.010620,690.388916 
	C843.085144,704.681458 840.240295,718.990479 836.710876,733.638489 
	C756.965637,734.300171 677.869812,734.615723 598.774048,734.931274 
z"/>
<path fill="#E3B98F" opacity="1.000000" stroke="none" 
	d="
M960.081299,535.303467 
	C961.201111,539.053345 962.204407,543.233337 963.235962,547.406433 
	C964.593079,552.896851 967.885498,556.815918 972.858154,559.465881 
	C987.953918,567.510803 1004.206055,572.198730 1020.849609,575.471191 
	C1024.335693,576.156677 1028.288086,574.470703 1032.409668,573.799438 
	C1039.612305,576.944092 1040.552246,577.953247 1038.326172,585.120117 
	C1034.142578,598.588867 1030.360352,612.349365 1024.425293,625.061401 
	C1018.112732,638.582092 1016.404907,638.186646 1004.565735,630.781921 
	C989.937500,621.632690 975.751404,611.708557 961.900330,601.411743 
	C954.203186,595.689758 947.603088,588.498413 940.454041,582.029541 
	C937.768555,579.599426 937.681702,577.474487 940.445618,574.979004 
	C942.658447,572.981079 944.542786,570.619263 946.786011,568.158936 
	C954.393921,558.414246 959.712219,548.091675 960.081299,535.303467 
z"/>
<path fill="#EFEEEE" opacity="1.000000" stroke="none" 
	d="
M1054.795654,613.929688 
	C1058.341309,615.697021 1061.807739,617.801575 1065.274048,619.906189 
	C1064.871094,620.533142 1064.468018,621.160095 1064.065063,621.787048 
	C1060.673584,620.282593 1056.199707,620.699890 1054.673828,615.307251 
	C1054.609375,614.716370 1054.662842,614.491638 1054.795654,613.929688 
z"/>
<path fill="#E3B98F" opacity="1.000000" stroke="none" 
	d="
M1054.533691,596.110901 
	C1054.640381,596.160828 1054.672485,596.327332 1054.665283,596.744629 
	C1054.432495,596.769043 1054.376953,596.513062 1054.533691,596.110901 
z"/>
<path fill="#E3B98F" opacity="1.000000" stroke="none" 
	d="
M1054.719238,584.125488 
	C1054.803833,584.021301 1054.850464,584.512634 1054.785645,584.750122 
	C1054.555176,584.751282 1054.526489,584.498657 1054.719238,584.125488 
z"/>
<path fill="#4590D4" opacity="1.000000" stroke="none" 
	d="
M598.608521,735.222290 
	C677.869812,734.615723 756.965637,734.300171 836.530151,733.980957 
	C835.257935,743.267700 833.568054,752.568359 831.714355,761.836182 
	C831.471069,763.052795 830.479309,764.170654 829.681396,765.217712 
	C821.423889,776.053284 813.135010,786.864929 804.599365,797.871033 
	C769.874756,798.038147 735.396606,798.487488 700.939392,797.834656 
	C677.214172,797.385254 653.515991,795.440674 629.809387,794.099792 
	C618.868958,793.480957 607.937256,792.708130 596.558777,792.007935 
	C596.704102,774.824646 597.292236,757.638550 597.840454,739.951782 
	C598.014648,738.138550 598.228821,736.825928 598.608521,735.222290 
z"/>
<path fill="#4590D4" opacity="1.000000" stroke="none" 
	d="
M908.912109,790.611206 
	C894.582703,792.281494 880.282837,793.539124 865.590271,794.880615 
	C872.390869,774.843567 879.584106,754.722717 887.397888,734.281372 
	C890.661377,733.960388 893.304382,733.959900 895.947327,733.959412 
	C899.632263,749.279602 903.346802,764.592712 906.979248,779.925354 
	C907.782166,783.314514 908.295166,786.772339 908.912109,790.611206 
z"/>
<path fill="#4EA0EC" opacity="1.000000" stroke="none" 
	d="
M895.954468,733.570862 
	C893.304382,733.959900 890.661377,733.960388 887.580811,733.946838 
	C888.197998,729.074768 889.252747,724.216736 890.335632,718.978027 
	C892.229675,723.458984 894.095581,728.320618 895.954468,733.570862 
z"/>
<path fill="#2EC590" opacity="1.000000" stroke="none" 
	d="
M609.052673,618.737183 
	C609.423035,630.788879 610.217041,642.411499 609.869019,653.999878 
	C609.481445,666.904907 608.054688,679.778687 607.001892,693.116760 
	C603.384338,682.686401 595.850464,675.645386 586.147827,669.842407 
	C567.577393,658.735657 549.528015,646.759705 531.182190,635.272644 
	C528.453918,633.564331 526.823730,631.801392 526.580811,628.353882 
	C526.113403,621.721130 524.922058,615.142090 524.350037,608.513184 
	C523.881409,603.083130 521.515503,599.062500 516.604614,595.641846 
	C516.472290,590.224854 516.566406,585.523254 517.024170,580.738037 
	C522.771118,579.883484 528.259277,579.538635 533.514648,578.246887 
	C542.567444,576.021667 544.897217,567.363647 538.724792,560.281677 
	C537.336487,558.688843 536.185425,556.889221 534.925110,555.184814 
	C538.692932,556.070801 542.460754,556.956787 546.967712,557.981812 
	C553.449951,559.885193 559.193054,561.649536 564.936157,563.413879 
	C570.807068,566.159790 576.835388,568.616394 582.518738,571.707275 
	C598.001648,580.127625 606.663940,593.166138 608.134277,610.845459 
	C608.341248,613.333984 608.689636,615.810852 609.052673,618.737183 
z"/>
<path fill="#C74D2C" opacity="1.000000" stroke="none" 
	d="
M1051.274048,475.159851 
	C1048.913940,473.115204 1047.047241,470.899109 1044.699341,469.477661 
	C1029.164673,460.072968 1012.526733,453.777100 994.268555,452.359131 
	C981.562439,451.372284 972.769409,455.985443 967.584045,466.219971 
	C965.541443,465.281586 963.881592,464.180817 962.233582,463.062561 
	C955.252869,458.325989 948.275696,453.584229 941.297241,448.844360 
	C937.594604,440.106323 939.226318,432.287140 945.309631,425.195984 
	C949.212524,420.646484 953.022522,416.017242 956.931702,411.473145 
	C960.817810,406.955719 965.829834,404.557312 971.728394,404.097809 
	C980.858704,403.386658 989.990845,402.672333 999.132874,402.142670 
	C1030.728760,400.312134 1055.183105,419.209747 1061.237671,450.109222 
	C1063.921265,463.804474 1066.493774,477.521545 1068.306763,491.849060 
	C1062.719482,486.351349 1057.132080,480.853668 1051.274048,475.159851 
z"/>
<path fill="#D8453B" opacity="1.000000" stroke="none" 
	d="
M565.072998,563.023193 
	C559.193054,561.649536 553.449951,559.885193 547.352051,557.973511 
	C551.113953,534.388306 554.088928,510.844757 552.965210,486.976532 
	C552.518799,477.494629 551.603577,467.975922 546.720825,459.555969 
	C539.395813,446.924561 528.558594,439.652466 513.662170,438.977509 
	C504.726410,438.572662 496.067627,439.254852 488.051849,445.417603 
	C486.685089,433.279541 485.418335,422.029633 484.065735,410.378052 
	C494.208984,402.894165 505.672607,400.703186 517.725769,402.466888 
	C545.138062,406.477997 563.267578,423.342834 570.067261,450.433594 
	C575.752808,473.085632 575.111023,496.014893 572.451599,518.884155 
	C570.746277,533.549377 567.671082,548.055237 565.072998,563.023193 
z"/>
<path fill="#4EA0EC" opacity="1.000000" stroke="none" 
	d="
M570.596069,353.800385 
	C577.183228,335.627289 591.343201,325.969452 609.732727,326.809570 
	C625.949829,327.550385 639.988220,339.155151 644.265564,355.355865 
	C648.290100,370.598816 642.476562,386.672028 629.570984,395.983582 
	C616.740112,405.241211 599.730225,405.644989 586.367065,397.009003 
	C573.118042,388.446808 566.517029,372.550385 569.800720,357.104340 
	C570.008362,356.127625 570.246216,355.157288 570.596069,353.800385 
z"/>
<path fill="#4EA0EC" opacity="1.000000" stroke="none" 
	d="
M884.374634,395.682983 
	C870.885925,384.686005 865.905884,370.841064 870.429749,354.488647 
	C874.611084,339.374847 885.182129,330.107391 900.612122,327.219116 
	C917.509338,324.056152 934.202087,332.892395 941.639648,348.250031 
	C948.950500,363.345825 945.398560,381.898834 933.042297,393.156647 
	C920.396179,404.678467 901.862366,406.468597 887.146667,397.578857 
	C886.292542,397.062866 885.488708,396.463654 884.374634,395.682983 
z"/>
<path fill="#4EA0EC" opacity="1.000000" stroke="none" 
	d="
M775.561951,331.349670 
	C790.565002,340.387848 797.623169,355.313965 794.905945,371.757507 
	C792.419006,386.807922 780.608154,399.257263 764.947205,402.338867 
	C749.976624,405.284607 737.104431,400.815216 727.484497,388.882629 
	C717.871887,376.959076 716.082581,363.412537 722.298950,349.453918 
	C728.503967,335.520905 739.650574,327.899567 755.005737,326.817017 
	C762.150696,326.313324 768.918579,327.744385 775.561951,331.349670 
z"/>
<path fill="#C5925A" opacity="1.000000" stroke="none" 
	d="
M941.175537,449.272217 
	C948.275696,453.584229 955.252869,458.325989 962.233582,463.062561 
	C963.881592,464.180817 965.541443,465.281586 967.463440,466.544006 
	C967.791382,476.513885 967.851746,486.330170 967.883118,496.619934 
	C965.201233,498.074890 962.548401,499.056396 959.344788,499.732880 
	C957.719604,495.084778 956.614197,490.749023 955.580383,486.396271 
	C954.759949,482.941833 954.015869,479.433380 949.836243,478.483917 
	C945.743652,477.554199 943.953979,480.702271 941.815247,483.186401 
	C938.419006,474.157349 939.672729,464.886780 940.403076,455.647461 
	C940.560120,453.660248 940.833801,451.682281 941.175537,449.272217 
z"/>
<path fill="#E3B98F" opacity="1.000000" stroke="none" 
	d="
M941.843384,483.588013 
	C943.953979,480.702271 945.743652,477.554199 949.836243,478.483917 
	C954.015869,479.433380 954.759949,482.941833 955.580383,486.396271 
	C956.614197,490.749023 957.719604,495.084778 958.985840,499.771667 
	C958.799683,503.135254 958.421875,506.155060 957.589966,509.645325 
	C955.314514,510.091125 953.493103,510.066437 951.671631,510.041779 
	C947.657410,508.560852 945.961121,505.346954 945.211304,501.417572 
	C944.102600,495.607391 942.985229,489.798889 941.843384,483.588013 
z"/>
<path fill="#C5925A" opacity="1.000000" stroke="none" 
	d="
M951.758179,510.420776 
	C953.493103,510.066437 955.314514,510.091125 957.587830,510.088593 
	C958.747253,517.358215 959.454834,524.655090 960.119385,532.382935 
	C957.332458,525.475952 954.588562,518.137878 951.758179,510.420776 
z"/>
<path fill="#3D3D3C" opacity="1.000000" stroke="none" 
	d="
M516.660522,580.821594 
	C516.566406,585.523254 516.472290,590.224854 516.440613,595.361084 
	C505.663544,593.093140 494.822205,590.398254 483.986633,587.680237 
	C482.229706,587.239563 480.498444,586.696655 478.391113,586.094238 
	C477.997589,583.001587 477.968262,580.015747 477.879822,576.592896 
	C477.903900,571.914856 477.987091,567.673645 478.525024,562.805237 
	C490.561798,562.020386 502.143738,561.809387 513.725830,561.801086 
	C514.708984,561.800415 515.692993,563.153931 516.460205,564.377014 
	C516.382690,570.191040 516.521606,575.506287 516.660522,580.821594 
M483.029572,570.739868 
	C484.939423,572.650513 486.759338,572.300110 487.622314,569.959534 
	C487.920197,569.151489 486.497314,567.709106 485.860504,566.556458 
	C484.806305,567.747009 483.752106,568.937500 483.029572,570.739868 
z"/>
<path fill="#3D3D3C" opacity="1.000000" stroke="none" 
	d="
M478.125305,611.165405 
	C481.437744,618.577454 486.904297,624.725525 493.312378,630.519775 
	C474.242706,630.988708 478.518921,633.172058 478.008057,616.071350 
	C477.963379,614.576050 478.065460,613.076416 478.125305,611.165405 
z"/>
<path fill="#FDFDFD" opacity="1.000000" stroke="none" 
	d="
M1435.055420,374.077881 
	C1431.290771,376.816986 1427.846924,376.446503 1426.210205,372.607025 
	C1425.482788,370.900543 1426.609253,367.316437 1428.124756,365.987579 
	C1430.608398,363.809692 1434.111572,364.537201 1435.672119,367.563812 
	C1436.495972,369.161316 1435.497314,371.698608 1435.055420,374.077881 
z"/>
<path fill="#FDFDFD" opacity="1.000000" stroke="none" 
	d="
M1405.469604,366.191650 
	C1408.315430,366.288574 1411.054688,366.215576 1413.345459,367.193146 
	C1414.217041,367.565033 1414.637451,370.499573 1414.250244,372.005646 
	C1413.410522,375.271729 1409.550903,376.678650 1406.603760,375.225677 
	C1403.356323,373.624664 1402.850220,370.492340 1405.469604,366.191650 
z"/>
<path fill="#FDFDFD" opacity="1.000000" stroke="none" 
	d="
M1457.576660,367.359619 
	C1459.612305,370.949951 1458.691284,373.938599 1455.459473,374.955597 
	C1453.495728,375.573608 1450.048584,374.707489 1448.756348,373.217285 
	C1447.705322,372.005249 1448.039307,368.203094 1449.225952,366.735748 
	C1451.531616,363.884949 1454.734131,364.304443 1457.576660,367.359619 
z"/>
<path fill="#FDFDFD" opacity="1.000000" stroke="none" 
	d="
M203.632278,669.174561 
	C201.801285,671.957825 199.517929,673.651794 196.823669,671.701233 
	C195.177094,670.509094 193.356110,668.033936 193.510376,666.304199 
	C193.666611,664.552429 195.860504,662.246338 197.689316,661.530273 
	C201.720261,659.952209 204.122162,663.041870 203.632278,669.174561 
z"/>
<path fill="#FDFDFD" opacity="1.000000" stroke="none" 
	d="
M221.039917,671.997498 
	C216.806686,671.330444 214.136581,669.266296 215.710388,665.268372 
	C216.420258,663.465027 219.386246,661.421387 221.217010,661.521790 
	C222.875900,661.612793 225.192474,664.226379 225.772202,666.161194 
	C226.698425,669.252502 224.996384,671.605225 221.039917,671.997498 
z"/>
<path fill="#FDFDFD" opacity="1.000000" stroke="none" 
	d="
M181.276917,664.026733 
	C182.532379,668.021423 182.233994,671.516174 177.734589,671.726074 
	C175.680450,671.821899 172.950363,669.868408 171.626358,668.045715 
	C170.941345,667.102661 172.122528,663.855774 173.401062,662.633728 
	C175.993607,660.155823 178.856949,660.788330 181.276917,664.026733 
z"/>
<path fill="#FDFDFD" opacity="1.000000" stroke="none" 
	d="
M44.768311,337.091370 
	C41.951649,331.896637 42.740730,327.643188 46.652344,327.345886 
	C48.985226,327.168579 52.009800,328.452087 53.677395,330.122894 
	C54.626591,331.073944 54.108501,334.507935 53.126350,336.151733 
	C51.203758,339.369476 48.145920,339.551819 44.768311,337.091370 
z"/>
<path fill="#FDFDFD" opacity="1.000000" stroke="none" 
	d="
M66.313011,332.835632 
	C68.010422,327.593018 70.700455,325.890045 74.650658,327.250763 
	C78.073357,328.429810 78.713715,331.390442 77.710526,334.105896 
	C77.035690,335.932556 74.879868,338.082336 73.066063,338.433960 
	C69.467575,339.131500 67.382515,336.525482 66.313011,332.835632 
z"/>
<path fill="#FDFDFD" opacity="1.000000" stroke="none" 
	d="
M99.646332,328.203613 
	C102.688568,331.155487 102.890022,334.520935 100.095032,336.646545 
	C98.348595,337.974701 94.336525,338.396698 92.738808,337.260284 
	C91.163544,336.139862 90.241501,332.118866 91.004837,330.125671 
	C92.385353,326.520874 95.875183,326.131104 99.646332,328.203613 
z"/>
<path fill="#FDFDFD" opacity="1.000000" stroke="none" 
	d="
M276.204926,117.359421 
	C279.075043,114.304214 282.168945,114.439690 284.073853,117.257172 
	C285.128510,118.817085 285.002991,122.223709 283.942719,123.829453 
	C283.110077,125.090515 279.683624,125.757469 278.017731,125.113892 
	C274.685760,123.826675 274.307220,120.803131 276.204926,117.359421 
z"/>
<path fill="#FDFDFD" opacity="1.000000" stroke="none" 
	d="
M264.219849,122.361671 
	C262.506531,125.613281 259.928345,127.126991 257.207397,125.114716 
	C255.604538,123.929344 254.265411,120.917442 254.598282,119.045403 
	C254.868973,117.523087 257.814392,115.415993 259.554993,115.433449 
	C263.323242,115.471207 264.791779,118.317642 264.219849,122.361671 
z"/>
<path fill="#FDFDFD" opacity="1.000000" stroke="none" 
	d="
M303.956177,124.915207 
	C300.532135,126.542343 297.598907,125.976707 296.709534,122.737930 
	C296.178864,120.805290 297.020721,117.604416 298.453125,116.313904 
	C299.544739,115.330399 303.244690,115.661385 304.529144,116.810501 
	C306.997131,119.018494 306.771698,122.134094 303.956177,124.915207 
z"/>
<path fill="#E3B98F" opacity="1.000000" stroke="none" 
	d="
M499.073822,555.806335 
	C495.067413,551.440247 491.061035,547.074158 487.026031,542.347961 
	C487.410767,542.260681 487.839905,542.512512 488.235077,542.809509 
	C503.541840,554.313965 508.048004,552.126221 524.680237,541.955383 
	C526.222717,541.012085 527.776367,540.086914 529.663574,539.071960 
	C531.030823,543.363708 532.059448,547.736877 532.768677,552.583862 
	C527.034180,555.017029 521.618896,556.976257 516.129883,558.534912 
	C514.628357,557.408447 513.240479,556.169189 511.765259,556.054443 
	C507.553802,555.726929 503.306824,555.856567 499.073822,555.806335 
z"/>
<path fill="#F0C89E" opacity="1.000000" stroke="none" 
	d="
M516.203674,558.935547 
	C521.618896,556.976257 527.034180,555.017029 532.814209,552.975769 
	C533.627441,553.518311 534.075867,554.142883 534.724731,554.976074 
	C536.185425,556.889221 537.336487,558.688843 538.724792,560.281677 
	C544.897217,567.363647 542.567444,576.021667 533.514648,578.246887 
	C528.259277,579.538635 522.771118,579.883484 517.024109,580.738037 
	C516.521606,575.506287 516.382690,570.191040 516.329590,564.182617 
	C516.344788,561.971497 516.274231,560.453491 516.203674,558.935547 
z"/>
<path fill="#FDFDFD" opacity="1.000000" stroke="none" 
	d="
M1291.462646,579.780029 
	C1295.701172,576.478760 1299.440552,577.166870 1299.797485,581.121521 
	C1299.938477,582.685181 1299.236694,584.951050 1298.096558,585.826233 
	C1296.980591,586.682922 1293.934570,586.894470 1293.302979,586.116577 
	C1292.059082,584.584717 1291.900269,582.171814 1291.462646,579.780029 
z"/>
<path fill="#FDFDFD" opacity="1.000000" stroke="none" 
	d="
M1280.138184,579.132690 
	C1279.951782,581.661316 1279.951782,584.130859 1278.891235,585.997803 
	C1278.470825,586.737976 1275.121460,586.816040 1274.137573,585.980469 
	C1272.908691,584.936768 1272.102783,582.582336 1272.253906,580.896057 
	C1272.563232,577.446594 1275.743042,576.718628 1280.138184,579.132690 
z"/>
<path fill="#FDFDFD" opacity="1.000000" stroke="none" 
	d="
M1311.317871,578.623901 
	C1314.489502,576.563538 1316.971802,577.641174 1318.206055,580.244141 
	C1318.867554,581.638977 1318.482666,584.449951 1317.441406,585.472900 
	C1316.406128,586.489868 1313.529175,586.843018 1312.214478,586.118286 
	C1309.262939,584.491394 1309.333496,581.640869 1311.317871,578.623901 
z"/>
<path fill="#FDFDFD" opacity="1.000000" stroke="none" 
	d="
M298.992676,451.181122 
	C300.406097,452.557861 301.686310,453.838226 302.325836,455.383698 
	C302.466156,455.722809 300.275757,457.740143 299.250122,457.668915 
	C297.941559,457.577942 296.725891,456.150604 295.470184,455.299255 
	C296.523193,453.926178 297.576172,452.553131 298.992676,451.181122 
z"/>
<path fill="#FDFDFD" opacity="1.000000" stroke="none" 
	d="
M281.483459,453.570312 
	C283.303741,452.732147 284.973877,452.237671 286.643982,451.743195 
	C287.014923,453.070953 287.963196,454.601074 287.589294,455.667725 
	C287.237640,456.670807 284.914551,458.049500 284.466187,457.750824 
	C283.152802,456.875824 282.341370,455.247345 281.483459,453.570312 
z"/>
<path fill="#FDFDFD" opacity="1.000000" stroke="none" 
	d="
M271.563995,451.534790 
	C272.347137,453.369202 272.791290,455.059143 273.235443,456.749115 
	C271.883575,457.072113 270.415924,457.860260 269.218597,457.562286 
	C268.352570,457.346741 267.071106,455.091187 267.312561,454.778595 
	C268.346313,453.440338 269.876068,452.485199 271.563995,451.534790 
z"/>
<path fill="#FDFDFD" opacity="1.000000" stroke="none" 
	d="
M1389.674072,729.203308 
	C1390.661743,730.835510 1391.641113,732.385010 1391.725464,733.981750 
	C1391.752808,734.501038 1389.304077,735.783264 1388.237793,735.554016 
	C1387.123901,735.314514 1386.311035,733.674866 1385.366455,732.647339 
	C1386.683716,731.477905 1388.000854,730.308411 1389.674072,729.203308 
z"/>
<path fill="#FDFDFD" opacity="1.000000" stroke="none" 
	d="
M1376.451050,735.386047 
	C1374.551025,734.798523 1372.823853,734.202148 1371.489502,733.121155 
	C1371.094360,732.801086 1371.454224,730.678345 1372.095825,730.162109 
	C1372.964478,729.463257 1374.653320,728.970398 1375.613281,729.347961 
	C1378.709839,730.565918 1378.512085,732.812073 1376.451050,735.386047 
z"/>
<path fill="#FDFDFD" opacity="1.000000" stroke="none" 
	d="
M1357.128052,732.843933 
	C1358.386475,731.351807 1359.545288,729.944031 1361.034058,729.303162 
	C1361.494995,729.104736 1363.551025,730.945190 1363.616577,731.935608 
	C1363.691040,733.061401 1362.267822,735.308594 1361.647217,735.256714 
	C1360.104126,735.127563 1358.647095,733.968994 1357.128052,732.843933 
z"/>
<path fill="#FDFDFD" opacity="1.000000" stroke="none" 
	d="
M1347.727051,183.640656 
	C1345.913330,184.460403 1344.196411,185.205338 1342.502197,185.157043 
	C1342.052734,185.144226 1341.072021,182.488983 1341.434326,181.419174 
	C1341.779419,180.400162 1344.179077,178.988953 1344.593994,179.281891 
	C1345.940552,180.232605 1346.791016,181.886017 1347.727051,183.640656 
z"/>
<path fill="#FDFDFD" opacity="1.000000" stroke="none" 
	d="
M1330.672729,179.234772 
	C1331.793579,180.831818 1332.827148,182.321365 1333.104248,183.940369 
	C1333.174194,184.348648 1330.816650,185.657074 1329.590942,185.635101 
	C1328.748413,185.620010 1327.071167,183.647842 1327.265137,183.200775 
	C1327.916138,181.701599 1329.239258,180.494247 1330.672729,179.234772 
z"/>
<path fill="#FDFDFD" opacity="1.000000" stroke="none" 
	d="
M1355.333252,182.136353 
	C1356.800903,180.939987 1358.149048,179.870789 1359.679688,179.415390 
	C1360.137695,179.279144 1361.784912,180.943787 1361.697876,181.633179 
	C1361.520996,183.033752 1360.533081,184.331909 1359.879517,185.672287 
	C1358.347534,184.614410 1356.815674,183.556519 1355.333252,182.136353 
z"/>
<path fill="#EFEEEE" opacity="1.000000" stroke="none" 
	d="
M516.129883,558.534912 
	C516.274231,560.453491 516.344788,561.971497 516.546021,563.683838 
	C515.692993,563.153931 514.708984,561.800415 513.725830,561.801086 
	C502.143738,561.809387 490.561798,562.020386 478.557404,562.377197 
	C477.877350,556.414917 478.222229,556.031189 484.245758,555.979492 
	C488.873016,555.939758 493.500519,555.932678 498.600891,555.858704 
	C503.306824,555.856567 507.553802,555.726929 511.765259,556.054443 
	C513.240479,556.169189 514.628357,557.408447 516.129883,558.534912 
z"/>
<path fill="#C1C4C5" opacity="1.000000" stroke="none" 
	d="
M482.863770,570.433960 
	C483.752106,568.937500 484.806305,567.747009 485.860474,566.556458 
	C486.497314,567.709106 487.920197,569.151489 487.622314,569.959534 
	C486.759338,572.300110 484.939423,572.650513 482.863770,570.433960 
z"/>
</svg>