<?xml version="1.0" encoding="UTF-8"?>
<svg xmlns="http://www.w3.org/2000/svg" xmlns:xlink="http://www.w3.org/1999/xlink" width="36px" height="36px" viewBox="0 0 100 100" version="1.1">
<g id="surface1">
<path style=" stroke:none;fill-rule:nonzero;fill:rgb(66.27451%,92.54902%,85.098039%);fill-opacity:1;" d="M 22.210938 52.21875 L 22.207031 51.609375 L 25.679688 51.613281 C 25.898438 54.039062 26.382812 56.441406 27.210938 58.738281 C 28.792969 63.105469 31.585938 67.015625 35.148438 69.984375 C 38.527344 72.796875 42.75 74.675781 47.0625 75.480469 C 47.957031 75.644531 48.863281 75.804688 49.769531 75.867188 L 49.792969 79.457031 C 43.503906 79.113281 37.222656 76.476562 32.449219 72.394531 C 26.457031 67.269531 22.824219 60.078125 22.210938 52.21875 Z M 22.210938 52.21875 "/>
<path style=" stroke:none;fill-rule:nonzero;fill:rgb(0%,8.627451%,18.039216%);fill-opacity:1;" d="M 49.773438 20.789062 L 49.796875 20.75 C 49.832031 20.667969 49.835938 20.597656 49.847656 20.511719 C 49.894531 20.175781 50.066406 19.941406 50.308594 19.710938 C 50.816406 19.554688 51.207031 19.523438 51.734375 19.539062 C 51.890625 19.542969 52.070312 19.527344 52.21875 19.582031 C 52.367188 19.964844 52.40625 20.378906 52.5625 20.753906 L 52.773438 20.824219 C 54.757812 21.066406 56.753906 21.417969 58.671875 21.996094 C 64.472656 23.746094 69.664062 27.296875 73.398438 32.070312 C 76.207031 35.660156 78.101562 39.988281 78.988281 44.453125 L 79.375 46.804688 C 79.4375 47.296875 79.457031 47.828125 79.5625 48.3125 C 79.730469 49.570312 79.765625 50.921875 79.546875 52.175781 C 78.828125 60.488281 75.214844 67.511719 68.832031 72.867188 C 65.125 75.972656 60.558594 78.023438 55.832031 78.96875 C 54.804688 79.175781 53.761719 79.289062 52.722656 79.410156 L 49.792969 79.457031 L 49.769531 75.867188 C 48.863281 75.804688 47.957031 75.644531 47.0625 75.480469 C 42.75 74.675781 38.527344 72.796875 35.148438 69.984375 C 31.585938 67.015625 28.792969 63.105469 27.210938 58.738281 C 26.382812 56.441406 25.898438 54.039062 25.679688 51.613281 L 22.207031 51.609375 L 22.210938 52.21875 C 22.109375 51.78125 22.15625 51.210938 22.148438 50.753906 C 22.136719 50.050781 22.074219 49.296875 22.152344 48.601562 C 22.273438 47.289062 22.394531 46.007812 22.636719 44.707031 C 23.5 40.085938 25.496094 35.660156 28.429688 31.980469 C 32.355469 27.046875 37.777344 23.382812 43.902344 21.78125 C 45.84375 21.273438 47.78125 21.015625 49.773438 20.789062 Z M 40.148438 35.90625 C 40.15625 38.605469 40.097656 64.257812 40.179688 64.402344 L 47.480469 64.40625 C 49.203125 64.417969 50.917969 64.507812 52.640625 64.347656 C 55.804688 64.050781 58.660156 62.597656 60.917969 60.386719 C 61.386719 59.84375 61.867188 59.304688 62.285156 58.714844 C 64.238281 55.945312 65.171875 52.652344 64.925781 49.265625 C 64.648438 45.417969 62.816406 41.679688 59.882812 39.160156 C 58.054688 37.59375 55.65625 36.429688 53.261719 36.101562 C 51.675781 35.882812 50.074219 35.9375 48.476562 35.949219 L 43.332031 35.953125 C 42.308594 35.953125 41.164062 36.039062 40.148438 35.90625 Z M 40.148438 35.90625 "/>
<path style=" stroke:none;fill-rule:nonzero;fill:rgb(20%,42.745098%,54.117647%);fill-opacity:1;" d="M 38.273438 67.53125 L 49.753906 67.53125 L 49.757812 72.085938 C 46.796875 71.625 43.976562 71.007812 41.296875 69.597656 C 40.695312 69.28125 38.449219 68.105469 38.273438 67.53125 Z M 38.273438 67.53125 "/>
<path style=" stroke:none;fill-rule:nonzero;fill:rgb(20%,42.745098%,54.117647%);fill-opacity:1;" d="M 37.886719 32.808594 C 38.492188 32.292969 39.195312 31.882812 39.878906 31.480469 C 42.101562 30.167969 44.441406 29.152344 46.980469 28.644531 C 47.898438 28.460938 48.832031 28.425781 49.757812 28.316406 L 49.75 32.8125 Z M 37.886719 32.808594 "/>
<path style=" stroke:none;fill-rule:nonzero;fill:rgb(20%,42.745098%,54.117647%);fill-opacity:1;" d="M 29.488281 48.585938 C 29.476562 47.847656 29.597656 47.128906 29.726562 46.40625 C 30.46875 42.183594 32.472656 38.144531 35.414062 35.027344 C 35.9375 34.46875 36.433594 33.886719 37.0625 33.449219 L 37.105469 48.585938 Z M 29.488281 48.585938 "/>
<path style=" stroke:none;fill-rule:nonzero;fill:rgb(66.27451%,92.54902%,85.098039%);fill-opacity:1;" d="M 32.675781 40.789062 C 32.996094 40.796875 33.238281 40.8125 33.523438 40.972656 C 33.867188 41.167969 34.128906 41.503906 34.226562 41.890625 C 34.316406 42.242188 34.265625 42.644531 34.074219 42.953125 C 33.800781 43.390625 33.390625 43.574219 32.914062 43.695312 C 32.699219 43.707031 32.5 43.714844 32.300781 43.636719 C 31.929688 43.488281 31.609375 43.15625 31.460938 42.789062 L 31.433594 42.726562 L 31.367188 42.53125 C 31.285156 42.164062 31.375 41.683594 31.597656 41.382812 C 31.867188 41.019531 32.246094 40.855469 32.675781 40.789062 Z M 32.675781 40.789062 "/>
<path style=" stroke:none;fill-rule:nonzero;fill:rgb(99.607843%,53.72549%,12.54902%);fill-opacity:1;" d="M 52.71875 71.988281 L 52.714844 67.546875 C 53.34375 67.53125 53.964844 67.429688 54.585938 67.316406 C 57.140625 66.847656 59.582031 65.71875 61.621094 64.105469 C 64.46875 61.851562 66.460938 58.6875 67.457031 55.210938 C 67.792969 54.03125 67.984375 52.824219 68.128906 51.609375 L 72.070312 51.613281 C 72.066406 52.019531 72.082031 52.429688 72.015625 52.832031 C 71.820312 54.066406 71.597656 55.246094 71.234375 56.445312 C 69.882812 60.910156 67.070312 64.910156 63.375 67.734375 C 61.269531 69.339844 58.960938 70.363281 56.46875 71.1875 L 54.164062 71.742188 L 53.265625 71.878906 C 53.082031 71.894531 52.898438 71.945312 52.71875 71.988281 Z M 52.71875 71.988281 "/>
<path style=" stroke:none;fill-rule:nonzero;fill:rgb(9.411765%,27.058824%,40%);fill-opacity:1;" d="M 25.699219 48.585938 C 25.859375 47.140625 26.023438 45.675781 26.347656 44.253906 C 27.203125 40.527344 29.105469 36.96875 31.46875 33.984375 C 34.882812 29.679688 39.851562 26.59375 45.164062 25.257812 C 46.660156 24.878906 48.230469 24.683594 49.757812 24.503906 L 49.757812 28.316406 C 48.832031 28.425781 47.898438 28.460938 46.980469 28.644531 C 44.441406 29.152344 42.101562 30.167969 39.878906 31.480469 C 39.195312 31.882812 38.492188 32.292969 37.886719 32.808594 L 37.085938 32.8125 L 37.0625 33.449219 C 36.433594 33.886719 35.9375 34.46875 35.414062 35.027344 C 32.472656 38.144531 30.46875 42.183594 29.726562 46.40625 C 29.597656 47.128906 29.476562 47.847656 29.488281 48.585938 Z M 25.699219 48.585938 "/>
<path style=" stroke:none;fill-rule:nonzero;fill:rgb(66.27451%,92.54902%,85.098039%);fill-opacity:1;" d="M 22.152344 48.601562 C 22.273438 47.289062 22.394531 46.007812 22.636719 44.707031 C 23.5 40.085938 25.496094 35.660156 28.429688 31.980469 C 32.355469 27.046875 37.777344 23.382812 43.902344 21.78125 C 45.84375 21.273438 47.78125 21.015625 49.773438 20.789062 L 49.757812 24.503906 C 48.230469 24.683594 46.660156 24.878906 45.164062 25.257812 C 39.851562 26.59375 34.882812 29.679688 31.46875 33.984375 C 29.105469 36.96875 27.203125 40.527344 26.347656 44.253906 C 26.023438 45.675781 25.859375 47.140625 25.699219 48.585938 Z M 22.152344 48.601562 "/>
<path style=" stroke:none;fill-rule:nonzero;fill:rgb(9.411765%,27.058824%,40%);fill-opacity:1;" d="M 29.796875 51.613281 L 34.652344 51.601562 C 35.460938 51.601562 36.292969 51.535156 37.09375 51.621094 L 37.101562 52.667969 L 37.113281 67.558594 L 38.273438 67.53125 C 38.449219 68.105469 40.695312 69.28125 41.296875 69.597656 C 43.976562 71.007812 46.796875 71.625 49.757812 72.085938 L 49.769531 75.867188 C 48.863281 75.804688 47.957031 75.644531 47.0625 75.480469 C 42.75 74.675781 38.527344 72.796875 35.148438 69.984375 C 31.585938 67.015625 28.792969 63.105469 27.210938 58.738281 C 26.382812 56.441406 25.898438 54.039062 25.679688 51.613281 Z M 29.796875 51.613281 "/>
<path style=" stroke:none;fill-rule:nonzero;fill:rgb(20%,42.745098%,54.117647%);fill-opacity:1;" d="M 29.796875 51.613281 L 34.652344 51.601562 C 35.460938 51.601562 36.292969 51.535156 37.09375 51.621094 L 37.101562 52.667969 C 37.023438 53.136719 37.066406 53.667969 37.066406 54.144531 L 37.058594 56.976562 L 37.054688 66.875 C 35.453125 65.265625 33.949219 63.578125 32.746094 61.640625 C 31.148438 59.070312 30.003906 56.027344 29.578125 53.027344 C 29.523438 52.640625 29.382812 52.042969 29.46875 51.667969 Z M 29.796875 51.613281 "/>
<path style=" stroke:none;fill-rule:nonzero;fill:rgb(66.27451%,92.54902%,85.098039%);fill-opacity:1;" d="M 32.726562 56.453125 C 33.003906 56.429688 33.246094 56.476562 33.492188 56.613281 C 33.820312 56.796875 34.148438 57.140625 34.222656 57.519531 L 34.242188 57.617188 C 34.308594 57.988281 34.25 58.347656 34.058594 58.671875 C 33.835938 59.046875 33.460938 59.222656 33.058594 59.332031 C 32.671875 59.335938 32.371094 59.300781 32.03125 59.089844 C 31.714844 58.890625 31.476562 58.570312 31.398438 58.203125 C 31.3125 57.808594 31.359375 57.429688 31.589844 57.089844 C 31.867188 56.683594 32.265625 56.550781 32.726562 56.453125 Z M 32.726562 56.453125 "/>
<path style=" stroke:none;fill-rule:nonzero;fill:rgb(99.215686%,35.294118%,13.333333%);fill-opacity:1;" d="M 72.070312 51.613281 L 79.476562 51.636719 C 79.589844 51.761719 79.546875 52.003906 79.546875 52.175781 C 78.828125 60.488281 75.214844 67.511719 68.832031 72.867188 C 65.125 75.972656 60.558594 78.023438 55.832031 78.96875 C 54.804688 79.175781 53.761719 79.289062 52.722656 79.410156 L 52.71875 71.988281 C 52.898438 71.945312 53.082031 71.894531 53.265625 71.878906 L 54.164062 71.742188 L 56.46875 71.1875 C 58.960938 70.363281 61.269531 69.339844 63.375 67.734375 C 67.070312 64.910156 69.882812 60.910156 71.234375 56.445312 C 71.597656 55.246094 71.820312 54.066406 72.015625 52.832031 C 72.082031 52.429688 72.066406 52.019531 72.070312 51.613281 Z M 72.070312 51.613281 "/>
<path style=" stroke:none;fill-rule:nonzero;fill:rgb(0%,8.627451%,18.039216%);fill-opacity:1;" d="M 70.328125 62.601562 C 70.601562 62.578125 70.910156 62.617188 71.164062 62.722656 C 71.539062 62.882812 71.835938 63.238281 71.980469 63.613281 C 72.144531 64.035156 72.140625 64.414062 71.953125 64.828125 C 71.710938 65.371094 71.214844 65.585938 70.695312 65.78125 C 70.375 65.828125 70.023438 65.753906 69.738281 65.601562 C 69.367188 65.394531 69.078125 65.042969 68.957031 64.632812 C 68.832031 64.191406 68.914062 63.710938 69.148438 63.320312 C 69.410156 62.882812 69.859375 62.722656 70.328125 62.601562 Z M 70.328125 62.601562 "/>
<path style=" stroke:none;fill-rule:nonzero;fill:rgb(99.215686%,35.294118%,13.333333%);fill-opacity:1;" d="M 52.773438 20.824219 C 54.757812 21.066406 56.753906 21.417969 58.671875 21.996094 C 64.472656 23.746094 69.664062 27.296875 73.398438 32.070312 C 76.207031 35.660156 78.101562 39.988281 78.988281 44.453125 L 79.375 46.804688 C 79.4375 47.296875 79.457031 47.828125 79.5625 48.3125 L 79.519531 48.5625 C 79.226562 48.609375 78.902344 48.582031 78.605469 48.582031 L 76.878906 48.582031 L 70.617188 48.5625 L 68.109375 48.605469 C 67.957031 47.585938 67.796875 46.574219 67.527344 45.582031 C 66.835938 43.015625 65.605469 40.644531 63.917969 38.59375 C 61.816406 36.039062 58.785156 34.136719 55.585938 33.296875 C 54.636719 33.046875 53.675781 32.910156 52.703125 32.816406 L 52.707031 28.28125 L 52.710938 26.152344 L 52.699219 22.292969 L 52.699219 21.296875 C 52.699219 21.199219 52.675781 20.988281 52.703125 20.898438 C 52.710938 20.867188 52.75 20.847656 52.773438 20.824219 Z M 52.773438 20.824219 "/>
<path style=" stroke:none;fill-rule:nonzero;fill:rgb(0%,8.627451%,18.039216%);fill-opacity:1;" d="M 70.179688 34.191406 C 70.457031 34.179688 70.710938 34.167969 70.972656 34.28125 C 71.4375 34.476562 71.835938 34.875 72 35.355469 C 72.132812 35.742188 72.101562 36.1875 71.90625 36.542969 C 71.652344 37.007812 71.246094 37.21875 70.761719 37.355469 C 70.527344 37.390625 70.265625 37.375 70.042969 37.289062 C 69.550781 37.105469 69.210938 36.863281 69.011719 36.367188 C 68.839844 35.949219 68.867188 35.492188 69.046875 35.082031 C 69.257812 34.597656 69.714844 34.375 70.179688 34.191406 Z M 70.179688 34.191406 "/>
<path style=" stroke:none;fill-rule:nonzero;fill:rgb(99.607843%,53.72549%,12.54902%);fill-opacity:1;" d="M 52.707031 28.28125 C 53.332031 28.242188 54.117188 28.484375 54.742188 28.617188 C 58.589844 29.425781 61.859375 31.179688 64.8125 33.765625 C 68.355469 36.875 70.660156 41.132812 71.6875 45.703125 C 71.898438 46.636719 72.097656 47.574219 72.175781 48.53125 C 71.976562 48.53125 70.691406 48.488281 70.617188 48.5625 L 68.109375 48.605469 C 67.957031 47.585938 67.796875 46.574219 67.527344 45.582031 C 66.835938 43.015625 65.605469 40.644531 63.917969 38.59375 C 61.816406 36.039062 58.785156 34.136719 55.585938 33.296875 C 54.636719 33.046875 53.675781 32.910156 52.703125 32.816406 Z M 52.707031 28.28125 "/>
<path style=" stroke:none;fill-rule:nonzero;fill:rgb(0%,8.627451%,18.039216%);fill-opacity:1;" d="M 44.421875 39.808594 C 44.976562 39.832031 45.535156 39.796875 46.089844 39.796875 L 49.652344 39.792969 C 50.6875 39.796875 51.71875 39.785156 52.734375 39.992188 C 54.371094 40.332031 55.894531 41.175781 57.132812 42.285156 C 59.167969 44.101562 60.621094 46.894531 60.753906 49.640625 C 60.859375 51.871094 60.257812 54.242188 59.007812 56.105469 C 58.664062 56.617188 58.25 57.066406 57.835938 57.519531 C 56.300781 59.03125 54.46875 60.15625 52.296875 60.433594 C 51.222656 60.566406 50.125 60.546875 49.046875 60.546875 L 44.421875 60.546875 Z M 50.933594 47.089844 C 49.960938 47.21875 49.183594 47.566406 48.578125 48.363281 C 48.054688 49.050781 47.875 49.933594 48.015625 50.78125 L 48.15625 51.320312 C 48.390625 52.070312 48.964844 52.710938 49.65625 53.070312 C 50.097656 53.300781 50.492188 53.378906 50.980469 53.425781 C 51.101562 53.4375 51.257812 53.472656 51.378906 53.449219 C 52.429688 53.257812 53.207031 52.910156 53.835938 52.019531 C 54.28125 51.378906 54.457031 50.492188 54.320312 49.730469 C 54.160156 48.875 53.664062 48.070312 52.9375 47.582031 C 52.351562 47.1875 51.628906 47.039062 50.933594 47.089844 Z M 50.933594 47.089844 "/>
</g>
</svg>
