<?xml version="1.0" encoding="utf-8" ?>
<svg xmlns="http://www.w3.org/2000/svg" xmlns:xlink="http://www.w3.org/1999/xlink" width="4096" height="2732">
	<path fill="#FEFEFE" d="M-0 -0L4096 0L4096 2732L-0 2732L0 -0Z"/>
	<path fill="#ABEDD7" d="M907.003 1432.25C940.252 1429.33 978.139 1431.59 1011.92 1431.71C1023.31 1431.76 1039.99 1430.19 1050.39 1432.7L1051.51 1432.68C1055 1493.53 1066.08 1555.19 1080.96 1615.25C1140.18 1854.38 1286.9 2103.16 1558.2 2270.73L1601.06 2294.96C1685.83 2343.75 1791.37 2382.91 1898 2405.26C1920.21 2409.92 1943.5 2415.21 1966.32 2418.16C1989.31 2422.76 2016.23 2422.36 2038.1 2427.72L2037.88 2430.08L2038.95 2483.93C2039.01 2491.68 2037.82 2500.55 2039.68 2508.15L2039.36 2548.98C2039.42 2556.7 2038.25 2565.62 2040.25 2573.17L2039.19 2573.23C2015.18 2572.81 1990.29 2569.21 1966.66 2566.4C1816.45 2548.56 1681.72 2501 1562.07 2439.16C1528.56 2421.84 1495.19 2403.72 1464.86 2383.95C1148.49 2177.81 986.181 1886.59 929.482 1598.59L912.85 1487.81C910.704 1469.37 907.318 1450.68 907.003 1432.25Z"/>
	<path fill="#ABEDD7" d="M1050.39 1432.7L1051.51 1432.68C1055 1493.53 1066.08 1555.19 1080.96 1615.25C1140.18 1854.38 1286.9 2103.16 1558.2 2270.73L1601.06 2294.96C1685.83 2343.75 1791.37 2382.91 1898 2405.26C1920.21 2409.92 1943.5 2415.21 1966.32 2418.16C1989.31 2422.76 2016.23 2422.36 2038.1 2427.72L2037.88 2430.08C2032.45 2439.68 2035.98 2458.08 2036.03 2468.79C2036.19 2499.6 2038.1 2531.19 2035.23 2561.92L2033 2561.47L2030.12 2445.92C2028.98 2437.83 2029.09 2436.86 2019.42 2431.45L2015 2431.17C2011.71 2430.76 2008.87 2430.16 2005.46 2430.08C2000.85 2429.98 1997.02 2430.04 1992.64 2428.92C1987.23 2427.55 1981.91 2426.74 1976.14 2426.32C1969.61 2425.84 1964.02 2423.66 1957.96 2423.33C1942.49 2422.5 1926.5 2417.11 1911.23 2414.68C1907.63 2414.11 1905.29 2413.83 1902.05 2412.53C1898.76 2411.2 1900.15 2411.45 1896.26 2410.95C1884.55 2409.43 1871.44 2406.65 1860.13 2403.93L1857 2403.14C1851.62 2401.94 1847.82 2400.84 1843.05 2398.81L1841.42 2398.1L1837.78 2398.6C1829.37 2394.32 1811.63 2389.86 1801.27 2387.1C1795.83 2385.65 1790.12 2384.33 1785 2382.43C1772.32 2377.75 1755.83 2374.2 1744.48 2368.39C1741.36 2366.79 1742.84 2367.32 1739.43 2366.24C1727.81 2362.54 1718.69 2358.07 1708.01 2353.56C1702.24 2351.12 1695.59 2349.48 1690.01 2346.89C1681.99 2343.16 1674.8 2338.29 1666.18 2335.14C1662.09 2333.65 1659.26 2331.42 1655.31 2330.16C1636.32 2324.12 1620.48 2312.94 1603.42 2304.72C1593.77 2300.08 1585.28 2292.44 1574.41 2289.39C1570.81 2288.38 1567.74 2286.25 1566.01 2283.77L1565.02 2281.78C1560.68 2279.9 1557.48 2277.42 1553.42 2275.38C1542.11 2269.67 1525.18 2261 1517.24 2253.3C1514.49 2250.63 1511.61 2248.71 1508.11 2246.49C1503.14 2245.99 1500.31 2243.42 1497.42 2240.69C1492.3 2235.86 1485.53 2233.43 1480.68 2228.62L1476.87 2224.9C1473.62 2221.74 1471.4 2222.4 1469.02 2218.42L1467.42 2218.89L1463.42 2215.35L1459.02 2211.08C1457.26 2209.98 1454.74 2209.52 1453.01 2208.4C1449.8 2206.32 1448.49 2202.67 1445.14 2200.33C1438.58 2195.74 1431.1 2191.56 1426.31 2185.97C1424.12 2183.41 1423.59 2182.07 1420.29 2179.95C1416.28 2177.38 1415.21 2173.26 1411.01 2171.28C1407.43 2169.59 1410.57 2171.65 1406.96 2169.14L1405.02 2167.72C1400.34 2164.4 1397.3 2160.3 1393.09 2156.71L1377.02 2141.04C1372.77 2137.97 1369.31 2134.94 1366.59 2131.1L1365.65 2129.7L1359.02 2123.7C1353.27 2118.56 1348.92 2112.69 1343.02 2107.7L1339.01 2104.35C1336.89 2101.55 1338.02 2100.99 1334.25 2098.47C1330.83 2096.19 1331.89 2097.4 1330.18 2094.84L1329.02 2093.02C1324.02 2087.78 1316.97 2082.54 1312.96 2076.94C1311.64 2075.09 1309.22 2073.31 1308.13 2071.59C1302 2061.93 1291.34 2054.02 1285.42 2044.6L1282.31 2039.65C1266.86 2023.05 1255.37 2004.44 1242.58 1986.81L1203.38 1928.24C1200.02 1922.81 1195.21 1917.69 1192.31 1912.16L1177.57 1886.26C1174.12 1877.71 1168 1868.51 1163.02 1860.24C1151.62 1841.3 1144.69 1821.52 1135.19 1802.21C1121.73 1774.86 1111.47 1746.16 1100.84 1718.2C1096.46 1706.7 1094.17 1694.06 1089.02 1682.82C1082.25 1668.05 1080.7 1651.18 1075.81 1635.91L1073.04 1624.13C1071.35 1618.99 1071.32 1613.06 1069.04 1608.12C1068.03 1605.94 1067.51 1605.57 1067.3 1603.07C1066.57 1594.63 1063.31 1585.82 1061.26 1577.44L1059.02 1561.43C1057.77 1557.35 1058.35 1551.64 1056.26 1548.09C1052.91 1542.39 1054.76 1534.25 1053.19 1528.08C1049.93 1515.3 1051.16 1501.94 1048.58 1489.06C1046.68 1479.54 1045.9 1469.73 1045.42 1460.13C1045.22 1456.1 1045.52 1447.67 1043.02 1444.04C1042.27 1442.95 1038.44 1440.98 1037.02 1440.04L1039.02 1436.03C1035.23 1434.78 1030.53 1435 1026.33 1434.82C1033.9 1434.7 1040.69 1434.17 1048.09 1433.05L1050.39 1432.7Z"/>
	<path fill="#ABEDD7" d="M906.062 1309.72L905.99 1309.43L915.716 1213.93C941.758 1010.49 1020.15 807.035 1164.14 626.151C1205.38 574.337 1251.21 523.185 1303.89 476.091C1407.76 383.241 1533.38 300.909 1685.47 243.884C1717.06 232.039 1748.56 220.616 1782.13 211.436C1863.92 189.072 1951.74 175.347 2039.02 166.75L2038.02 321.105L1939.26 334.172L1902.97 340.807C1899.32 341.475 1891.68 343.616 1888.11 343.45C1833.14 356.12 1781.23 370.482 1730.54 389.649C1520.18 469.185 1363.63 604.368 1259.39 747.509C1167.15 874.167 1102.98 1010.36 1074.88 1149.99L1059.05 1249.36C1056.79 1267.41 1057.14 1288.34 1051.45 1305.9L1051.61 1307.57C1028.14 1307.82 917.393 1305.85 906.062 1309.72Z"/>
	<path fill="#ABEDD7" d="M1051.45 1305.9C1018.36 1305.01 982.624 1307.9 950.01 1304.97L962 1304.31C980.691 1304.99 1001.35 1305.44 1020 1304.31C1027.42 1303.86 1034.91 1304.11 1042.38 1304.49L1045 1304.64C1040.6 1302.06 1040.67 1302.24 1034.7 1302.43C1028.09 1302.64 1021.4 1301.74 1014.76 1301.42C1024.65 1300.94 1034.65 1301.58 1042.73 1297.3C1048.82 1290.62 1047.43 1279.13 1048.81 1271.29L1059.91 1176.08C1076.09 1087.36 1105.12 1000.35 1147.18 915.57C1161.28 887.144 1175.79 857.874 1193.35 830.331L1265.95 725.688L1345.47 633.691C1354.39 622.654 1366.76 613.14 1377.51 602.936C1411.12 571.059 1445.79 540.409 1486.52 512.277C1493.33 507.573 1499.59 501.75 1506.72 497.443L1565.88 460.754C1584.21 448.934 1605.41 438.755 1625.35 428.167C1634.74 423.183 1644.77 416.479 1655.46 412.796L1657.3 412.201L1676 403.739C1693.67 394.907 1712.56 388.309 1732.01 381.602C1738.45 379.381 1745.1 374.893 1752.34 374.239L1754 374.196C1757.29 371.979 1761.09 369.962 1765.69 369.201C1768.84 368.681 1767.38 369.225 1770.13 367.846L1772.01 366.852C1780.13 364.094 1770.81 368.011 1777.01 365.365C1781.81 363.317 1786.37 362.545 1791 360.856C1796.09 358.999 1800.32 357.488 1806.01 356.18L1807.33 357.845L1798.65 360.611L1800.5 362.51C1803.58 360.98 1801.78 361.791 1806.01 360.182L1809 360.176L1811 358.188L1814 358.842L1816.5 357.514L1822 355.847C1824.84 354.714 1827.08 353.901 1830.5 353.513C1833.4 353.184 1835.26 353.311 1838 352.172C1840.46 351.151 1840.13 350.535 1843 350.184C1846.07 349.809 1847.03 350.109 1850 349.177C1852.86 348.281 1855.43 348.271 1858 347.503L1860 346.509C1863.9 346.177 1863.15 346.423 1866 345.714L1868 345.175C1870.56 344.558 1871.74 344.445 1873.75 343.111L1875 342.18L1881 342.834L1883.03 340.959L1888.11 343.45C1833.14 356.12 1781.23 370.482 1730.54 389.649C1520.18 469.185 1363.63 604.368 1259.39 747.509C1167.15 874.167 1102.98 1010.36 1074.88 1149.99L1059.05 1249.36C1056.79 1267.41 1057.14 1288.34 1051.45 1305.9Z"/>
	<path fill="#00152F" d="M2039.02 166.75C2042.45 153.74 2045.38 134.196 2060.02 124.461C2062.66 122.705 2069.75 121.747 2073.42 121.047C2095.22 116.889 2115.46 115.964 2138.1 117.638L2146.58 145.319C2148.29 151.986 2149.33 163.836 2157.03 168.369L2229.06 178.416C2291.1 188.633 2352.34 202.094 2410.75 219.44C2460.05 234.082 2505.94 252.604 2550.5 272.783C2705.68 343.045 2829.75 437.682 2930.34 542.624C3095.15 714.566 3188.7 917.939 3231.51 1118.98L3260.14 1306.22C3264.17 1349.35 3268.06 1394.54 3260.59 1437.58C3251.77 1533.53 3235.44 1628.23 3207.36 1722.56C3198.43 1752.54 3190.04 1784.15 3175.84 1813.22L3134.99 1905L3073.27 2016.56C3065.94 2032.45 3050.71 2049.95 3039.78 2065.13C3037.42 2068.42 3033.44 2076.29 3029.45 2078.51C2991.39 2133.79 2943.55 2187.12 2891.96 2237.22C2879.28 2249.53 2867.1 2262.84 2852.62 2274.21C2813.43 2312.22 2766.38 2347.72 2716.97 2379.92C2592.32 2461.15 2437.89 2526.78 2268.87 2557.95C2244.8 2562.39 2219.7 2565.11 2195.14 2568.12L2159.48 2571.96L2042.57 2573.17L2040.25 2573.17C2038.25 2565.62 2039.42 2556.7 2039.36 2548.98L2039.68 2508.15C2037.82 2500.55 2039.01 2491.68 2038.95 2483.93L2037.88 2430.08L2038.1 2427.72C2016.23 2422.36 1989.31 2422.76 1966.32 2418.16C1943.5 2415.21 1920.21 2409.92 1898 2405.26C1791.37 2382.91 1685.83 2343.75 1601.06 2294.96L1558.2 2270.73C1286.9 2103.16 1140.18 1854.38 1080.96 1615.25C1066.08 1555.19 1055 1493.53 1051.51 1432.68L1050.39 1432.7C1039.99 1430.19 1023.31 1431.76 1011.92 1431.71C978.139 1431.59 940.252 1429.33 907.003 1432.25L906.062 1309.72C917.393 1305.85 1028.14 1307.82 1051.61 1307.57L1051.45 1305.9C1057.14 1288.34 1056.79 1267.41 1059.05 1249.36L1074.88 1149.99C1102.98 1010.36 1167.15 874.167 1259.39 747.509C1363.63 604.368 1520.18 469.185 1730.54 389.649C1781.23 370.482 1833.14 356.12 1888.11 343.45C1891.68 343.616 1899.32 341.475 1902.97 340.807L1939.26 334.172L2038.02 321.105L2039.02 166.75Z"/>
	<path fill="#00152F" d="M2039.68 2508.15L2039.95 2506.73L2041 2432.59C2043.62 2440.29 2042.06 2449.57 2042.07 2457.54L2042.03 2506.92C2042.02 2512.3 2039.75 2522.31 2044 2526.57L2044 2539.24L2046 2539.24C2046 2533.14 2048.56 2517.78 2044 2513.23C2044 2504.07 2040.83 2463.7 2046 2458.53C2046 2454.09 2047.64 2447.5 2044 2443.86C2044.58 2441.82 2044.71 2439.25 2047.17 2437.86L2048.32 2510.49L2048 2537.19C2047.64 2546.12 2046.24 2555.94 2051.32 2564.37C2052.33 2566.04 2052.97 2566.84 2053 2568.62L2042.57 2573.17L2040.25 2573.17C2038.25 2565.62 2039.42 2556.7 2039.36 2548.98L2039.68 2508.15Z"/>
	<path fill="#174666" d="M2038.02 321.105L2038.27 478.008L2037.72 657.436L2036 661.619C2017.47 662.887 1998.15 662.097 1979.49 662.096L1878.98 662.068L1518.54 660.983L1517.99 689.269L1519.24 1128.03L1519.66 1128.17L1520.04 1287.91C1519.87 1293.04 1521.21 1302.87 1517.54 1307.09C1509.64 1309.33 1497.22 1308.29 1488.47 1308.3L1426.65 1308.35L1112.05 1307.39C1093.88 1309.65 1070.17 1308.02 1051.61 1307.57L1051.45 1305.9C1057.14 1288.34 1056.79 1267.41 1059.05 1249.36L1074.88 1149.99C1102.98 1010.36 1167.15 874.167 1259.39 747.509C1363.63 604.368 1520.18 469.185 1730.54 389.649C1781.23 370.482 1833.14 356.12 1888.11 343.45C1891.68 343.616 1899.32 341.475 1902.97 340.807L1939.26 334.172L2038.02 321.105Z"/>
	<path fill="#174666" d="M1888.11 343.45C1891.68 343.616 1899.32 341.475 1902.97 340.807L1939.26 334.172L1948.8 335.255C1944.71 336.677 1940.29 337.167 1935.82 337.823L1936 338.832C1939.9 338.672 1941.31 338.194 1945 337.498C1949.77 336.596 1953.78 337.374 1959 336.164L1963.49 335.527C1960.81 338.155 1949.07 339.867 1944 340.607C1928.99 342.797 1914.39 347.155 1899.4 348.838C1888.25 350.09 1879.56 353.759 1867.87 354.638C1861.72 355.1 1858.85 356.479 1854.73 359.5L1852.37 359.723C1845.26 360.711 1832.03 364.592 1825.96 367.105C1818.79 370.076 1809.65 371.019 1802 373.503C1785.22 378.957 1768.89 385.72 1752 390.845C1730.87 397.26 1710.96 406.277 1691.66 414.741C1680.78 419.509 1670.91 423.248 1661.08 429.242L1658.59 429.598L1657.09 430.883C1654.37 432.92 1653.32 432.397 1650 433.532C1641.07 436.587 1635.38 442.25 1626 445.538L1616.19 450.422L1595.66 462.193L1532.91 498.91L1529.74 501.383C1523.96 505.922 1517.18 510.367 1509.96 513.85C1503.5 516.968 1500.51 522.372 1494.95 526.125C1484.21 533.39 1471.36 540.168 1463 548.921L1459.99 549.595C1453.62 555.624 1444 561.474 1439.99 568.271L1436.98 569.611L1434.3 572.084C1432.33 574.014 1430.39 575.14 1428.1 576.824L1412.95 590.182C1408.79 593.885 1403.92 597.037 1401.14 601.336C1396.67 608.275 1384.5 611.401 1379.81 619.478C1376.9 624.485 1369.63 632.417 1364.38 636.478C1354.04 644.469 1344.08 655.959 1337.11 665.483C1335.9 667.139 1334.58 668.256 1332.98 669.746L1316.52 687.604C1313.43 691.247 1311.83 694.701 1308.38 698.313C1306.12 700.676 1304.59 703.302 1302.26 705.669C1297.61 710.411 1294.98 716.101 1290.56 721.016C1284.17 728.112 1277.37 736.429 1272.6 743.951L1271.49 745.352L1249.25 778.103C1245.5 784.187 1241.58 791.362 1236.71 796.991C1234.32 799.755 1235.32 798.447 1233.89 801.419C1232.01 805.308 1228.32 808.21 1226.08 811.937C1217.91 825.506 1208.44 839.638 1201.87 853.53C1200.87 855.653 1199.73 856.902 1198.08 858.794C1189.94 868.127 1187.42 879.665 1181.52 889.673C1162.52 921.942 1150.07 954.805 1134.98 987.84L1134.42 989.439C1133.54 991.8 1134 990.637 1132.32 993.325C1130.94 995.538 1130.2 997.436 1129.45 999.758L1124.95 1011.16L1108.35 1058.31C1105.89 1065.74 1105.54 1073.3 1101.71 1080.52C1097.76 1087.96 1097.18 1096.17 1094.98 1103.87L1086.47 1140.79C1086.09 1143.17 1086.35 1141.87 1085.52 1144.09C1082.47 1152.23 1082.33 1161.53 1080.75 1169.9L1065.42 1260.73C1064.31 1266.63 1065.18 1272.59 1063.9 1278.45C1061.63 1288.88 1064.11 1296.39 1055.58 1306C1073.64 1306.67 1094.65 1305.1 1112.05 1307.39C1093.88 1309.65 1070.17 1308.02 1051.61 1307.57L1051.45 1305.9C1057.14 1288.34 1056.79 1267.41 1059.05 1249.36L1074.88 1149.99C1102.98 1010.36 1167.15 874.167 1259.39 747.509C1363.63 604.368 1520.18 469.185 1730.54 389.649C1781.23 370.482 1833.14 356.12 1888.11 343.45Z"/>
	<path fill="#174666" d="M2037.72 657.436L2034.93 660.302C2014.24 661.795 1991.86 660.716 1970.99 660.691L1850.99 660.56L1552.65 660.242C1557.47 657.238 1562.99 654.261 1566.87 650.697C1575.14 643.109 1586.79 636.483 1597.06 630.062L1654.1 596.126C1735.06 550.737 1827.62 508.4 1931.48 490.819C1966.52 484.888 2002.8 482.533 2038.27 478.008L2037.72 657.436Z"/>
	<path fill="#174666" d="M1517.54 1307.09C1486.2 1304.91 1451 1306.93 1419.36 1306.93L1206.91 1306.75L1217.6 1224.92C1243.09 1060.14 1321.68 892.158 1452.74 751.048L1492.46 710.555C1499.95 703.331 1507.74 694.844 1517.99 689.269L1519.24 1128.03L1519.66 1128.17L1520.04 1287.91C1519.87 1293.04 1521.21 1302.87 1517.54 1307.09Z"/>
	<path fill="#ABEDD7" d="M1336.42 988.764C1342.46 988.496 1348.1 988.409 1353.99 989.506C1370.47 992.576 1382.03 1000.69 1389.91 1010.49C1404.38 1028.48 1407.7 1052 1398.17 1071.46C1389.67 1088.79 1374.26 1098.49 1350.6 1106.88C1342.15 1107.79 1336.6 1108.08 1328.34 1106.16C1312.72 1102.52 1302.65 1093.34 1296 1083.67C1282.17 1063.57 1278.42 1038.28 1291.02 1017.4C1299.79 1002.87 1315.11 994.469 1336.42 988.764Z"/>
	<path fill="#174666" d="M1051.51 1432.68C1099.14 1430.09 1148.62 1431.86 1196.47 1431.8L1360.24 1430.4L1462.39 1430.29C1480.34 1430.24 1499.75 1429.14 1517.43 1430.7C1521.39 1434.6 1520.28 1438 1520.42 1442.65L1520.3 2051.2L1519.76 2085.15L1903.48 2083.45L1995.54 2083.46C2006.69 2083.47 2026.66 2081.68 2036.23 2085.02C2039.03 2091 2037.94 2097.74 2037.96 2103.96L2038.06 2138.68L2038.18 2270.5L2038.1 2427.72C2016.23 2422.36 1989.31 2422.76 1966.32 2418.16C1943.5 2415.21 1920.21 2409.92 1898 2405.26C1791.37 2382.91 1685.83 2343.75 1601.06 2294.96L1558.2 2270.73C1286.9 2103.16 1140.18 1854.38 1080.96 1615.25C1066.08 1555.19 1055 1493.53 1051.51 1432.68Z"/>
	<path fill="#174666" d="M1601.06 2294.96L1604.01 2293.84C1607.22 2295.93 1610.2 2295.87 1613 2297.96L1615 2296.47L1617.02 2299.12L1619 2297.8C1622.66 2300.35 1623.41 2301 1627.99 2302.46L1632 2304.47L1634.88 2305.72C1639.77 2307.9 1643.97 2310.38 1649 2312.48L1652 2313.81L1654.81 2315.02L1663.99 2319.81C1667.75 2321.86 1672.14 2323.33 1675.69 2325.53L1673 2327.8L1680 2328.47L1681 2327.15L1686.98 2329.8L1680.99 2331.47C1684.74 2333.13 1688.32 2334.59 1692.33 2335.94C1695.5 2337.02 1697.14 2337.69 1699 2339.81L1700.81 2340.26C1705.32 2341.49 1700.53 2340.19 1706 2342.48L1710 2343.48L1714 2341.82L1730.12 2348.91C1732.62 2350.16 1735.2 2350.91 1737.99 2351.82L1741.99 2353.16L1740 2355.16C1743.29 2357.52 1745.01 2358.02 1748.99 2359.48L1762.5 2364.49L1766.5 2366.15L1768.49 2366.74C1773.74 2368.3 1778.77 2371.14 1784.48 2371.6C1787.53 2371.84 1789.43 2372.78 1792 2373.83L1794 2373.16C1791.17 2371.27 1791.16 2370.78 1787.22 2370.18C1782.64 2369.47 1779.89 2368.16 1776 2366.49L1777.31 2365.47L1783.83 2366.75L1787.54 2367.42C1794.99 2368.87 1802.6 2372.64 1809.99 2374.74L1816.32 2377.35C1819.54 2378.6 1822.96 2379.45 1826.5 2380.18L1826.57 2381.83L1821.11 2381.23L1820 2381.84C1823.62 2384.47 1826.96 2384.96 1832 2385.83L1833 2381.84C1837.78 2383.39 1843.23 2384.66 1847 2387.18L1849.75 2387.06C1856.12 2386.98 1863.12 2390.28 1868.86 2391.98C1875.31 2393.89 1879.77 2395.45 1883 2399.84L1886.5 2398.51C1889.49 2397.66 1891.9 2397.79 1895 2397.85L1898 2399.18L1899.84 2399.42C1903.09 2399.95 1905.02 2401.36 1907.5 2402.76L1909 2405.17L1912.99 2404.94C1915.97 2404.98 1918.83 2406.68 1921 2407.84L1926 2407.19L1929 2409.18L1934 2405.85C1937.61 2406.54 1940.41 2406.96 1943.66 2408.23C1939.51 2408.83 1939.06 2409.19 1934.81 2408.3L1935 2409.86L1937.63 2409.99C1944.48 2410.5 1936.65 2409.82 1944 2411.52L1948.68 2411.61L1952 2412.52L1961.81 2414.32C1972.39 2416.15 1955.42 2413.12 1966 2415.52L1970.68 2415.85L1970.98 2417.3C1969.7 2417.46 1967.15 2417.49 1966.32 2418.16C1943.5 2415.21 1920.21 2409.92 1898 2405.26C1791.37 2382.91 1685.83 2343.75 1601.06 2294.96Z"/>
	<path fill="#174666" d="M2036.23 2085.02C2039.03 2091 2037.94 2097.74 2037.96 2103.96L2038.06 2138.68L2038.18 2270.5C1947.82 2254.89 1858.64 2237.79 1776.96 2206.79C1740.53 2192.96 1707.01 2176.19 1674.49 2158.65C1645.18 2142.84 1614.72 2126.18 1590.69 2106.69L1567.3 2085.37L2036.23 2085.02Z"/>
	<path fill="#174666" d="M1243.87 1432.02L1518.29 1431.86L1517.51 2057.16L1505.26 2044.44L1465.61 2003.4C1327.6 1854.57 1247.88 1690.22 1216.05 1517.02L1207.27 1460.71C1206.26 1452.29 1203.85 1442.99 1206.79 1434.7C1215.54 1430.97 1233.3 1432.16 1243.87 1432.02Z"/>
	<path fill="#ABEDD7" d="M1286.75 1704.52C1281.1 1685.51 1283.69 1664.56 1300.18 1648.05C1308.57 1639.65 1323.95 1632.24 1339 1630.27C1350.4 1628.78 1359.68 1630.98 1368.75 1635.56C1387.05 1644.8 1399.79 1661.97 1402.4 1677.07C1405.74 1696.45 1401.31 1718.85 1382.56 1734.51C1373.86 1741.78 1362.13 1747.31 1348 1748.37C1338.11 1749.12 1324.78 1745 1317.53 1740.76L1314.55 1738.73L1313.86 1738.6C1297.92 1731.69 1290.38 1716.26 1286.75 1704.52Z"/>
	<path fill="#ABEDD7" d="M1286.75 1704.52L1288.38 1701.16C1291.23 1703.59 1290.32 1702.03 1290.35 1704.79C1290.38 1707.31 1291.18 1708.87 1292.5 1711.17C1294.09 1708.69 1294.28 1707.48 1294.5 1704.85C1296.14 1706.62 1296.89 1707.74 1297.94 1709.64C1300.6 1714.47 1316.28 1732.3 1314.5 1735.18L1318.88 1738.6L1314.55 1738.73L1313.86 1738.6C1297.92 1731.69 1290.38 1716.26 1286.75 1704.52Z"/>
	<path fill="#FE5D26" d="M2792.14 1432.8C2805.12 1428.84 2855.66 1431.36 2872.73 1431.37L3117.92 1432.41L3204.53 1432.65C3221.27 1432.66 3239.06 1431.78 3255.63 1433.37L3260.59 1437.58C3251.77 1533.53 3235.44 1628.23 3207.36 1722.56C3198.43 1752.54 3190.04 1784.15 3175.84 1813.22L3134.99 1905L3073.27 2016.56C3065.94 2032.45 3050.71 2049.95 3039.78 2065.13C3037.42 2068.42 3033.44 2076.29 3029.45 2078.51C2991.39 2133.79 2943.55 2187.12 2891.96 2237.22C2879.28 2249.53 2867.1 2262.84 2852.62 2274.21C2813.43 2312.22 2766.38 2347.72 2716.97 2379.92C2592.32 2461.15 2437.89 2526.78 2268.87 2557.95C2244.8 2562.39 2219.7 2565.11 2195.14 2568.12L2159.48 2571.96L2159.29 2266.41L2159.18 2085.61C2209.25 2079.64 2257.49 2073 2304.02 2058.81C2411.46 2026.05 2495.68 1972.37 2563.52 1908.73C2668.24 1810.52 2731.2 1692.95 2764.05 1575.01L2779.89 1502.84L2786.96 1455.85C2787.86 1449.51 2787.41 1440.34 2791.03 1434.48L2792.14 1432.8Z"/>
	<path fill="#00152F" d="M2879.28 1882.49C2886.85 1882.11 2893.95 1881.74 2901.28 1883.35C2919.58 1887.35 2930.17 1895.67 2938.59 1906.88C2954.39 1927.9 2957.02 1953.26 2945.74 1975.51C2936.62 1993.5 2918.61 2004 2893.89 2012.19C2887.89 2012.83 2881.87 2013.45 2875.97 2012.1C2855.34 2007.37 2840.6 1994.56 2832.25 1981.59C2818.24 1959.83 2819.54 1933.78 2832.57 1911.98C2841.76 1896.62 2857.28 1888.92 2879.28 1882.49Z"/>
	<path fill="#FE5D26" d="M2792.14 1432.8L2953.52 1433.42C2942.67 1517.91 2929.87 1602.53 2897.62 1684.82L2879.69 1728.84C2839.68 1814.63 2789.69 1898.77 2719.63 1975.86L2681.19 2014.61C2633.48 2062.44 2578.44 2108.48 2512.52 2145.84C2460.3 2175.43 2403.91 2200.27 2343.62 2221.92C2306.28 2235.34 2266.4 2245.32 2226.01 2253.82C2205.75 2258.08 2177.12 2259.05 2159.29 2266.41L2159.18 2085.61C2209.25 2079.64 2257.49 2073 2304.02 2058.81C2411.46 2026.05 2495.68 1972.37 2563.52 1908.73C2668.24 1810.52 2731.2 1692.95 2764.05 1575.01L2779.89 1502.84L2786.96 1455.85C2787.86 1449.51 2787.41 1440.34 2791.03 1434.48L2792.14 1432.8Z"/>
	<path fill="#FE5D26" d="M2157.03 168.369L2229.06 178.416C2291.1 188.633 2352.34 202.094 2410.75 219.44C2460.05 234.082 2505.94 252.604 2550.5 272.783C2705.68 343.045 2829.75 437.682 2930.34 542.624C3095.15 714.566 3188.7 917.939 3231.51 1118.98L3260.14 1306.22C3248.83 1308.44 3236.34 1307.65 3224.63 1307.66L3160.1 1307.62L2891.43 1307.13C2883.36 1308.82 2871.04 1308.19 2862.31 1308.4L2788.82 1309.57C2769.26 1149.69 2708.41 983.216 2571.09 849.344C2496.2 776.336 2392.49 709.869 2265.74 679.365C2230.68 670.926 2194.27 666.138 2157.73 661.552L2158.36 474.958L2158.81 276.558L2158.42 205.151C2158.35 192.998 2159.3 180.419 2157.03 168.369Z"/>
	<path fill="#00152F" d="M2873.97 718.351C2886.09 716.989 2896.76 717.689 2907.44 721.944C2927.73 730.029 2942.74 748.433 2947.91 763.547L2948.61 765.707C2954.05 781.973 2952.63 797.291 2945.31 813.215C2937.32 830.616 2921.12 839.438 2898.38 847.682C2891.09 848.306 2884.78 848.425 2877.64 846.961C2857.87 842.902 2844.65 834.681 2835.56 822.488C2819.21 800.554 2818 773.862 2830.18 750.866C2837.85 736.393 2853.3 725.009 2873.97 718.351Z"/>
	<path fill="#FE5D26" d="M2158.36 474.958L2166.29 473.926C2223.28 485.199 2279.12 496.634 2333 513.769C2424.38 542.829 2504.74 587.37 2573.53 636.446C2642.98 685.984 2702.05 740.211 2750.45 799.864C2852.08 925.106 2908.58 1063.99 2939.83 1204.24L2956.93 1304.3C2943.24 1304.34 2901.13 1301.92 2891.43 1307.13C2883.36 1308.82 2871.04 1308.19 2862.31 1308.4L2788.82 1309.57C2769.26 1149.69 2708.41 983.216 2571.09 849.344C2496.2 776.336 2392.49 709.869 2265.74 679.365C2230.68 670.926 2194.27 666.138 2157.73 661.552L2158.36 474.958Z"/>
	<path fill="#FEFEFE" d="M1641.76 1502.98C1643.01 1499.28 1641.98 1493.44 1642.02 1489.51L1642.15 1456.11L1642.34 1320.47L1644.4 788.985C1699.71 793.064 1754.39 791.205 1809.86 790.652L2020.07 789.593C2065.26 789.564 2111.98 788.18 2156.66 793.318C2193.96 797.608 2226.71 806.464 2262.22 814.617C2301.71 830.149 2337.85 845.747 2373.32 865.224L2374.39 866.042C2387.19 875.695 2402.43 884.112 2415.72 893.566C2449.03 917.267 2477.47 942.861 2502.68 970.659L2540.81 1017.17C2541.43 1017.99 2545.97 1024.4 2546.53 1024.48C2584.51 1081.8 2613.97 1139.18 2633.22 1200.58L2649.95 1265.77L2660.76 1385.64L2647.53 1504.2L2632.99 1558.21C2594.18 1670.39 2529.34 1782.83 2403.42 1864.67C2377.01 1881.83 2350.45 1897.32 2319.13 1910.41C2284.59 1924.85 2251.4 1937.15 2212.12 1945.09C2196.05 1948.34 2179.37 1950.14 2163.15 1953.04C2095.34 1958.69 2030.5 1957.19 1962.45 1956.18L1841.02 1955.8L1710.87 1955.79C1689.22 1955.79 1666.42 1956.89 1645 1955.25L1642.19 1951.46C1644.61 1936.5 1642.41 1919.82 1642.33 1904.71L1642.01 1809.33L1641.76 1502.98Z"/>
	<path fill="#00152F" d="M2316.25 1718.76C2309.66 1724.84 2301.11 1730.28 2293.16 1735.6C2245.98 1767.1 2188.97 1789.41 2122.03 1795.38C2080.74 1799.07 2037.63 1797.73 1996.02 1797.77L1819.17 1797.94L1819.16 948.407L1837.37 948.087L1987.33 947.263C2041.08 947.275 2097.97 944.997 2150.42 953.929C2197.3 961.91 2239.56 980.049 2275.04 1001.62C2364.99 1056.32 2420.61 1132.26 2453.94 1209.37C2471.21 1249.33 2483.19 1291 2486.02 1332.6C2489.21 1345.5 2488.47 1358.99 2488.55 1372.03C2488.9 1429.9 2477.34 1488.87 2454.28 1544.65C2450.91 1552.82 2447.76 1564.81 2441.11 1571.72C2421.26 1617.69 2384.96 1662.27 2340.42 1699.61C2333.18 1705.69 2325.01 1713.77 2316.25 1718.76Z"/>
	<path fill="#FEFEFE" d="M2015.03 1273.01C2039.51 1258.15 2066.97 1245.24 2101.76 1245.91C2133.79 1246.52 2155.45 1258.13 2176.71 1272.69C2223.83 1315.91 2232.83 1363.84 2220.8 1415.61C2215.07 1430.63 2208.21 1445.21 2196.86 1458.79C2174.38 1485.68 2144.7 1499.27 2101.2 1507.73C2092.5 1506.38 2083.61 1506.3 2075 1505.01C2051.76 1501.52 2029.77 1491.38 2014.49 1479.35C1969.56 1444 1961.49 1394.18 1967.14 1349.81C1971.81 1320.92 1988.75 1295.88 2015.03 1273.01Z"/>
</svg>
