<?xml version="1.0" encoding="utf-8" ?>
<svg xmlns="http://www.w3.org/2000/svg" xmlns:xlink="http://www.w3.org/1999/xlink" width="1024" height="1024">
	<path fill="#A9ECD9" d="M227.429 534.74L227.398 528.472L262.944 528.504C265.185 553.357 270.156 577.978 278.657 601.471C294.841 646.199 323.451 686.223 359.934 716.625C394.532 745.457 437.752 764.687 481.932 772.912C491.086 774.616 500.35 776.259 509.644 776.884L509.878 813.633C445.481 810.137 381.15 783.127 332.273 741.32C270.924 688.846 233.74 615.185 227.429 534.74Z"/>
	<path fill="#00162E" d="M509.667 212.866L509.903 212.46C510.281 211.649 510.308 210.914 510.433 210.04C510.924 206.61 512.686 204.183 515.171 201.831C520.358 200.247 524.346 199.918 529.748 200.071C531.36 200.117 533.207 199.976 534.737 200.527C536.244 204.458 536.659 208.699 538.25 212.539L540.395 213.232C560.732 215.703 581.178 219.331 600.817 225.25C660.197 243.148 713.369 279.53 751.582 328.38C780.355 365.163 799.767 409.485 808.844 455.2L812.791 479.265C813.421 484.338 813.647 489.756 814.722 494.724C816.457 507.611 816.81 521.434 814.551 534.265C807.183 619.409 770.217 691.33 704.846 746.152C666.899 777.976 620.109 798.946 571.701 808.638C561.186 810.743 550.511 811.909 539.868 813.153L509.878 813.633L509.644 776.884C500.35 776.259 491.086 774.616 481.932 772.912C437.752 764.687 394.532 745.457 359.934 716.625C323.451 686.223 294.841 646.199 278.657 601.471C270.156 577.978 265.185 553.357 262.944 528.504L227.398 528.472L227.429 534.74C226.414 530.223 226.89 524.399 226.815 519.727C226.699 512.539 226.028 504.813 226.847 497.683C228.096 484.231 229.317 471.106 231.805 457.795C240.65 410.46 261.097 365.161 291.107 327.478C331.336 276.964 386.85 239.447 449.553 223.033C469.454 217.824 489.29 215.186 509.667 212.866ZM411.133 367.667C411.188 395.316 410.591 658.004 411.436 659.471L486.193 659.527C503.842 659.641 521.417 660.558 539.031 658.918C571.441 655.899 600.693 640.997 623.784 618.358C628.594 612.789 633.533 607.267 637.781 601.25C657.801 572.888 667.373 539.159 664.859 504.49C662.001 465.072 643.245 426.816 613.184 401.01C594.477 384.952 569.916 373.032 545.399 369.663C529.161 367.431 512.747 367.989 496.405 368.117L443.739 368.162C433.234 368.152 421.532 369.029 411.133 367.667Z"/>
	<path fill="#336D8A" d="M391.906 691.535L509.478 691.518L509.526 738.175C479.212 733.438 450.305 727.112 422.89 712.699C416.7 709.445 393.735 697.394 391.906 691.535Z"/>
	<path fill="#336D8A" d="M387.957 335.963C394.174 330.698 401.372 326.491 408.372 322.357C431.105 308.932 455.083 298.53 481.08 293.336C490.48 291.458 500.038 291.09 509.529 289.958L509.452 336.007L387.957 335.963Z"/>
	<path fill="#336D8A" d="M301.964 497.504C301.859 489.949 303.071 482.617 304.381 475.2C312.019 431.968 332.524 390.608 362.632 358.668C368.002 352.972 373.075 347.012 379.525 342.502L379.964 497.505L301.964 497.504Z"/>
	<path fill="#A9ECD9" d="M334.617 417.678C337.866 417.768 340.35 417.927 343.262 419.564C346.802 421.553 349.492 424.989 350.493 428.941C351.406 432.544 350.894 436.689 348.906 439.853C346.108 444.308 341.935 446.187 337.03 447.422C334.845 447.547 332.82 447.658 330.75 446.827C326.969 445.308 323.687 441.922 322.152 438.173L321.889 437.5L321.208 435.533C320.357 431.754 321.3 426.85 323.576 423.75C326.308 420.03 330.2 418.375 334.617 417.678Z"/>
	<path fill="#FE8920" d="M539.831 737.174L539.806 691.685C546.26 691.527 552.618 690.471 558.958 689.311C585.133 684.525 610.123 672.954 630.989 656.439C660.16 633.349 680.54 600.945 690.75 565.347C694.209 553.285 696.172 540.931 697.639 528.492L737.989 528.515C737.968 532.689 738.112 536.873 737.454 541C735.442 553.625 733.142 565.73 729.435 578C715.617 623.739 686.816 664.664 648.941 693.605C627.41 710.056 603.776 720.51 578.25 728.943L554.637 734.636L545.426 736.039C543.543 736.207 541.668 736.738 539.831 737.174Z"/>
	<path fill="#184566" d="M263.154 497.517C264.806 482.7 266.484 467.723 269.811 453.177C278.541 415.009 298.025 378.541 322.248 348.002C357.201 303.937 408.095 272.335 462.5 258.626C477.799 254.771 493.871 252.743 509.521 250.923L509.529 289.958C500.038 291.09 490.48 291.458 481.08 293.336C455.083 298.53 431.105 308.932 408.372 322.357C401.372 326.491 394.174 330.698 387.957 335.963L379.74 336.008L379.525 342.502C373.075 347.012 368.002 352.972 362.632 358.668C332.524 390.608 312.019 431.968 304.381 475.2C303.071 482.617 301.859 489.949 301.964 497.504L263.154 497.517Z"/>
	<path fill="#A9ECD9" d="M226.847 497.683C228.096 484.231 229.317 471.106 231.805 457.795C240.65 410.46 261.097 365.161 291.107 327.478C331.336 276.964 386.85 239.447 449.553 223.033C469.454 217.824 489.29 215.186 509.667 212.866L509.521 250.923C493.871 252.743 477.799 254.771 462.5 258.626C408.095 272.335 357.201 303.937 322.248 348.002C298.025 378.541 278.541 415.009 269.811 453.177C266.484 467.723 264.806 482.7 263.154 497.517L226.847 497.683Z"/>
	<path fill="#184566" d="M305.133 528.524L354.849 528.401C363.111 528.396 371.624 527.715 379.821 528.605L379.932 539.321L380.033 691.781L391.906 691.535C393.735 697.394 416.7 709.445 422.89 712.699C450.305 727.112 479.212 733.438 509.526 738.175L509.644 776.884C500.35 776.259 491.086 774.616 481.932 772.912C437.752 764.687 394.532 745.457 359.934 716.625C323.451 686.223 294.841 646.199 278.657 601.471C270.156 577.978 265.185 553.357 262.944 528.504L305.133 528.524Z"/>
	<path fill="#336D8A" d="M305.133 528.524L354.849 528.401C363.111 528.396 371.624 527.715 379.821 528.605L379.932 539.321C379.125 544.124 379.561 549.572 379.547 554.454L379.499 583.422L379.459 684.79C363.034 668.323 347.649 651.021 335.334 631.2C318.973 604.866 307.239 573.729 302.864 543C302.303 539.057 300.868 532.903 301.75 529.099L305.133 528.524Z"/>
	<path fill="#A9ECD9" d="M335.111 578.1C337.945 577.843 340.456 578.324 342.96 579.719C346.304 581.581 349.667 585.12 350.453 588.997L350.627 590C351.312 593.79 350.707 597.471 348.746 600.807C346.488 604.646 342.644 606.44 338.515 607.558C334.564 607.6 331.469 607.255 328.018 605.086C324.779 603.05 322.329 599.761 321.517 596.004C320.646 591.979 321.129 588.08 323.484 584.609C326.312 580.442 330.411 579.085 335.111 578.1Z"/>
	<path fill="#FD5A22" d="M737.989 528.515L813.831 528.75C815.017 530.028 814.542 532.516 814.551 534.265C807.183 619.409 770.217 691.33 704.846 746.152C666.899 777.976 620.109 798.946 571.701 808.638C561.186 810.743 550.511 811.909 539.868 813.153L539.831 737.174C541.668 736.738 543.543 736.207 545.426 736.039L554.637 734.636L578.25 728.943C603.776 720.51 627.41 710.056 648.941 693.605C686.816 664.664 715.617 623.739 729.435 578C733.142 565.73 735.442 553.625 737.454 541C738.112 536.873 737.968 532.689 737.989 528.515Z"/>
	<path fill="#00162E" d="M720.145 641.042C722.956 640.78 726.123 641.191 728.727 642.299C732.578 643.937 735.589 647.548 737.086 651.383C738.772 655.703 738.724 659.619 736.82 663.857C734.338 669.383 729.227 671.609 723.914 673.611C720.644 674.099 717.029 673.323 714.137 671.742C710.317 669.654 707.341 666.041 706.132 661.834C704.835 657.323 705.679 652.404 708.072 648.405C710.766 643.903 715.354 642.282 720.145 641.042Z"/>
	<path fill="#FD5A22" d="M540.395 213.232C560.732 215.703 581.178 219.331 600.817 225.25C660.197 243.148 713.369 279.53 751.582 328.38C780.355 365.163 799.767 409.485 808.844 455.2L812.791 479.265C813.421 484.338 813.647 489.756 814.722 494.724L814.279 497.276C811.261 497.777 807.976 497.496 804.919 497.492L787.242 497.461L723.108 497.27L697.426 497.711C695.888 487.288 694.228 476.939 691.485 466.75C684.409 440.464 671.79 416.216 654.522 395.211C632.991 369.02 601.952 349.555 569.205 340.962C559.488 338.412 549.653 337.006 539.676 336.03L539.7 289.6L539.752 267.807L539.638 228.285L539.653 218.083C539.657 217.08 539.389 214.904 539.673 214C539.778 213.665 540.154 213.488 540.395 213.232Z"/>
	<path fill="#00162E" d="M718.629 350.107C721.471 349.991 724.06 349.887 726.75 351.027C731.512 353.045 735.598 357.11 737.282 362.046C738.635 366.015 738.313 370.547 736.306 374.216C733.712 378.955 729.578 381.101 724.607 382.521C722.208 382.878 719.517 382.7 717.24 381.85C712.205 379.972 708.739 377.463 706.665 372.41C704.903 368.119 705.206 363.457 707.039 359.25C709.206 354.278 713.896 351.995 718.629 350.107Z"/>
	<path fill="#FE8920" d="M539.7 289.6C546.138 289.182 554.155 291.698 560.549 293.044C599.96 301.338 633.452 319.287 663.662 345.775C699.979 377.618 723.575 421.181 734.096 468C736.249 477.579 738.261 487.146 739.09 496.945C737.027 496.949 723.879 496.516 723.108 497.27L697.426 497.711C695.888 487.288 694.228 476.939 691.485 466.75C684.409 440.464 671.79 416.216 654.522 395.211C632.991 369.02 601.952 349.555 569.205 340.962C559.488 338.412 549.653 337.006 539.676 336.03L539.7 289.6Z"/>
	<path fill="#00162E" d="M454.878 407.635C460.546 407.899 466.278 407.526 471.959 407.51L508.435 407.487C519.02 407.503 529.581 407.386 540 409.532C556.76 412.985 572.344 421.641 585.036 432.983C605.885 451.613 620.764 480.186 622.116 508.333C623.213 531.172 617.021 555.441 604.24 574.524C600.737 579.756 596.469 584.361 592.238 588.998C576.525 604.486 557.753 616.007 535.5 618.828C524.524 620.219 513.27 619.996 502.233 620.008L454.87 619.992L454.878 407.635ZM521.563 482.186C511.619 483.524 503.641 487.087 497.439 495.243C492.091 502.276 490.25 511.319 491.666 519.995L493.131 525.512C495.501 533.205 501.413 539.774 508.5 543.456C512.984 545.785 517.055 546.6 522.024 547.077C523.288 547.198 524.883 547.575 526.11 547.329C536.861 545.346 544.854 541.815 551.261 532.663C555.834 526.131 557.658 517.049 556.228 509.25C554.618 500.475 549.506 492.257 542.068 487.231C536.092 483.193 528.667 481.665 521.563 482.186Z"/>
</svg>
